<?xml version="1.0" encoding="UTF-8" standalone="no"?>
<svg
   xmlns:osb="http://www.openswatchbook.org/uri/2009/osb"
   xmlns:dc="http://purl.org/dc/elements/1.1/"
   xmlns:cc="http://creativecommons.org/ns#"
   xmlns:rdf="http://www.w3.org/1999/02/22-rdf-syntax-ns#"
   xmlns:svg="http://www.w3.org/2000/svg"
   xmlns="http://www.w3.org/2000/svg"
   xmlns:xlink="http://www.w3.org/1999/xlink"
   xmlns:sodipodi="http://sodipodi.sourceforge.net/DTD/sodipodi-0.dtd"
   xmlns:inkscape="http://www.inkscape.org/namespaces/inkscape"
   width="210mm"
   height="297mm"
   viewBox="0 0 210 297"
   version="1.1"
   id="svg16"
   inkscape:export-filename="/Users/jaccokulman/EventBridgeRule.png"
   inkscape:export-xdpi="59.902462"
   inkscape:export-ydpi="59.902462"
   inkscape:version="1.0.2 (e86c8708, 2021-01-15)"
   sodipodi:docname="EndPoint.svg">
  <defs
     id="defs10">
    <linearGradient
       inkscape:collect="always"
       id="linearGradient2997">
      <stop
         style="stop-color:#b0084d;stop-opacity:1"
         offset="0"
         id="stop2993" />
      <stop
         style="stop-color:#ff4f8b;stop-opacity:1"
         offset="1"
         id="stop2995" />
    </linearGradient>
    <linearGradient
       id="linearGradient2979"
       osb:paint="solid">
      <stop
         style="stop-color:#b0084d;stop-opacity:1;"
         offset="0"
         id="stop2977" />
    </linearGradient>
    <linearGradient
       inkscape:collect="always"
       xlink:href="#linearGradient2997"
       id="linearGradient2999"
       x1="34.017857"
       y1="159.50595"
       x2="131.53572"
       y2="61.988094"
       gradientUnits="userSpaceOnUse"
       gradientTransform="translate(3.118491,1.3697201)" />
    <linearGradient
       x1="0%"
       y1="100%"
       x2="100%"
       y2="0%"
       id="linearGradient-1">
      <stop
         stop-color="#B0084D"
         offset="0%"
         id="stop128" />
      <stop
         stop-color="#FF4F8B"
         offset="100%"
         id="stop130" />
    </linearGradient>
  </defs>
  <sodipodi:namedview
     id="base"
     pagecolor="#ffffff"
     bordercolor="#666666"
     borderopacity="1.0"
     inkscape:pageopacity="0.0"
     inkscape:pageshadow="2"
     inkscape:zoom="1.3722772"
     inkscape:cx="271.92347"
     inkscape:cy="541.03347"
     inkscape:document-units="mm"
     inkscape:current-layer="layer1"
     inkscape:document-rotation="0"
     showgrid="false"
     inkscape:window-width="1792"
     inkscape:window-height="1067"
     inkscape:window-x="0"
     inkscape:window-y="25"
     inkscape:window-maximized="0" />
  <metadata
     id="metadata13">
    <rdf:RDF>
      <cc:Work
         rdf:about="">
        <dc:format>image/svg+xml</dc:format>
        <dc:type
           rdf:resource="http://purl.org/dc/dcmitype/StillImage" />
        <dc:title></dc:title>
      </cc:Work>
    </rdf:RDF>
  </metadata>
  <g
     inkscape:label="Laag 1"
     inkscape:groupmode="layer"
     id="layer1">
    <circle
       style="opacity:1;fill:#ffffff;fill-opacity:1;fill-rule:evenodd;stroke:none;stroke-width:3;stroke-miterlimit:4;stroke-dasharray:none;stroke-opacity:1"
       id="path3073"
       cx="85.895088"
       cy="112.11671"
       r="54.274899" />
    <path
       id="rect2991"
       style="fill:url(#linearGradient2999);fill-opacity:1;fill-rule:evenodd;stroke:#d45500;stroke-width:0.264583"
       d="M 85.895349,65.241276 A 46.389192,46.875329 0 0 0 39.505933,112.11697 46.389192,46.875329 0 0 0 85.895349,158.99214 46.389192,46.875329 0 0 0 132.28424,112.11697 46.389192,46.875329 0 0 0 85.895349,65.241276 Z"
       inkscape:export-xdpi="69.613052"
       inkscape:export-ydpi="69.613052" />
    <path
       d="m 88.658772,113.49926 h 2.762233 v -2.76369 h -2.762233 z m -4.146247,0 h 2.763684 v -2.76369 h -2.763684 z m -4.144796,0 h 2.763683 v -2.76369 h -2.763683 z m 24.807981,8.75576 -9.540417,8.39528 V 93.77708 l 9.540417,8.39386 z M 95.947998,90.293928 c -0.295306,-0.125848 -1.575106,-0.502299 -2.464005,-0.01094 l -0.744119,0.412563 v 43.031739 l 0.744119,0.41256 c 0.331528,0.18385 0.716618,0.24732 1.08723,0.24732 0.619623,0 1.191472,-0.17673 1.376775,-0.25607 l 0.214271,-0.0897 10.818751,-9.52157 c 0.67029,-0.39067 1.09012,-1.09449 1.09012,-1.86031 v -20.89776 c 0,-0.7644 -0.41836,-1.46794 -1.08867,-1.860312 L 96.162274,90.381256 Z m -19.791662,40.357852 -9.541861,-8.39529 v -20.08703 l 9.541861,-8.393802 z M 75.84073,90.293928 75.62646,90.383668 64.80482,99.90524 c -0.667395,0.39232 -1.085786,1.0945 -1.085786,1.85889 v 20.89771 c 0,0.7644 0.418364,1.46942 1.087231,1.85884 l 10.820195,9.52305 0.21427,0.0897 c 0.183848,0.0793 0.757153,0.25608 1.376775,0.25608 0.369173,0 0.754258,-0.0635 1.085781,-0.24623 l 0.748469,-0.41257 V 90.69615 l -0.748464,-0.412563 c -0.885999,-0.488073 -2.168672,-0.116 -2.462561,0.01094 z m 39.00859,33.815602 -16.961392,16.96139 H 73.900801 L 56.940862,124.10953 V 100.12388 L 73.900801,83.162489 H 97.887928 L 114.84932,100.12388 Z M 99.086633,80.267048 H 72.702096 L 54.045438,98.925151 v 26.383109 l 18.656658,18.6581 h 26.384537 l 18.658107,-18.6581 V 98.925151 Z"
       id="AWS-Amazon-API-Gateway_Endpoint_Resource-Icon_light-bg"
       fill="#ff4f8b"
       style="fill:#ffffff;fill-rule:evenodd;stroke:none;stroke-width:1.44771" />
  </g>
</svg>
