<?xml version="1.0" encoding="UTF-8" standalone="no"?>
<svg
   xmlns:osb="http://www.openswatchbook.org/uri/2009/osb"
   xmlns:dc="http://purl.org/dc/elements/1.1/"
   xmlns:cc="http://creativecommons.org/ns#"
   xmlns:rdf="http://www.w3.org/1999/02/22-rdf-syntax-ns#"
   xmlns:svg="http://www.w3.org/2000/svg"
   xmlns="http://www.w3.org/2000/svg"
   xmlns:xlink="http://www.w3.org/1999/xlink"
   xmlns:sodipodi="http://sodipodi.sourceforge.net/DTD/sodipodi-0.dtd"
   xmlns:inkscape="http://www.inkscape.org/namespaces/inkscape"
   width="210mm"
   height="297mm"
   viewBox="0 0 210 297"
   version="1.1"
   id="svg16"
   inkscape:export-filename="/Users/jaccokulman/EventBridgeRule.png"
   inkscape:export-xdpi="59.902462"
   inkscape:export-ydpi="59.902462"
   inkscape:version="1.0.2 (e86c8708, 2021-01-15)"
   sodipodi:docname="Replay.svg">
  <defs
     id="defs10">
    <linearGradient
       inkscape:collect="always"
       id="linearGradient2997">
      <stop
         style="stop-color:#b0084d;stop-opacity:1"
         offset="0"
         id="stop2993" />
      <stop
         style="stop-color:#ff4f8b;stop-opacity:1"
         offset="1"
         id="stop2995" />
    </linearGradient>
    <linearGradient
       id="linearGradient2979"
       osb:paint="solid">
      <stop
         style="stop-color:#b0084d;stop-opacity:1;"
         offset="0"
         id="stop2977" />
    </linearGradient>
    <linearGradient
       inkscape:collect="always"
       xlink:href="#linearGradient2997"
       id="linearGradient2999"
       x1="34.017857"
       y1="159.50595"
       x2="131.53572"
       y2="61.988094"
       gradientUnits="userSpaceOnUse"
       gradientTransform="translate(3.118491,1.3697201)" />
    <linearGradient
       x1="0%"
       y1="100%"
       x2="100%"
       y2="0%"
       id="linearGradient-1">
      <stop
         stop-color="#B0084D"
         offset="0%"
         id="stop128" />
      <stop
         stop-color="#FF4F8B"
         offset="100%"
         id="stop130" />
    </linearGradient>
  </defs>
  <sodipodi:namedview
     id="base"
     pagecolor="#ffffff"
     bordercolor="#666666"
     borderopacity="1.0"
     inkscape:pageopacity="0.0"
     inkscape:pageshadow="2"
     inkscape:zoom="1.3722772"
     inkscape:cx="271.92347"
     inkscape:cy="541.03347"
     inkscape:document-units="mm"
     inkscape:current-layer="layer1"
     inkscape:document-rotation="0"
     showgrid="false"
     inkscape:window-width="1792"
     inkscape:window-height="1067"
     inkscape:window-x="0"
     inkscape:window-y="25"
     inkscape:window-maximized="0" />
  <metadata
     id="metadata13">
    <rdf:RDF>
      <cc:Work
         rdf:about="">
        <dc:format>image/svg+xml</dc:format>
        <dc:type
           rdf:resource="http://purl.org/dc/dcmitype/StillImage" />
        <dc:title></dc:title>
      </cc:Work>
    </rdf:RDF>
  </metadata>
  <g
     inkscape:label="Laag 1"
     inkscape:groupmode="layer"
     id="layer1">
    <circle
       style="opacity:1;fill:#ffffff;fill-opacity:1;fill-rule:evenodd;stroke:none;stroke-width:3;stroke-miterlimit:4;stroke-dasharray:none;stroke-opacity:1"
       id="path3073"
       cx="85.895088"
       cy="112.11671"
       r="54.274899" />
    <path
       id="rect2991"
       style="fill:url(#linearGradient2999);fill-opacity:1;fill-rule:evenodd;stroke:#d45500;stroke-width:0.264583"
       d="M 85.895349,65.241276 A 46.389192,46.875329 0 0 0 39.505933,112.11697 46.389192,46.875329 0 0 0 85.895349,158.99214 46.389192,46.875329 0 0 0 132.28424,112.11697 46.389192,46.875329 0 0 0 85.895349,65.241276 Z"
       inkscape:export-xdpi="69.613052"
       inkscape:export-ydpi="69.613052" />
    <g
       id="g1345"
       transform="matrix(2.6277713,0,0,2.6277713,46.745733,74.014025)"
       style="fill:#ffffff">
      <path
         d="M 15.56,26 A 11.584,11.584 0 0 1 7.428,22.632 0.99984899,0.99984899 0 1 1 8.842,21.218 9.567,9.567 0 0 0 15.56,24 c 5.238,0 9.5,-4.262 9.5,-9.5 C 25.06,9.262 20.798,5 15.56,5 10.516,5 6.257,9.101 6.067,14.142 6.046,14.694 5.569,15.114 5.03,15.104 A 1,1 0 0 1 4.069,14.067 C 4.299,7.964 9.454,3 15.56,3 c 6.341,0 11.5,5.159 11.5,11.5 0,6.341 -5.16,11.5 -11.5,11.5 z"
         id="path1332"
         style="fill:#ffffff" />
      <path
         d="m 12.997,19.54 a 1.663,1.663 0 0 1 -1.664,-1.664 v -6.753 c 0,-0.597 0.322,-1.151 0.842,-1.447 a 1.667,1.667 0 0 1 1.674,0.018 l 5.672,3.376 c 0.509,0.303 0.813,0.837 0.813,1.43 0,0.593 -0.304,1.127 -0.813,1.43 l -5.671,3.376 a 1.67,1.67 0 0 1 -0.853,0.234 z m 0.336,-7.825 v 5.57 L 18.012,14.5 Z M 4.718,15.402 A 1,1 0 0 1 3.843,14.887 l -1.776,-3.2 a 1,1 0 1 1 1.748,-0.971 l 1.291,2.326 2.326,-1.291 a 1.001,1.001 0 0 1 0.97,1.749 l -3.2,1.776 a 0.988,0.988 0 0 1 -0.484,0.126 z"
         id="path1334"
         style="fill:#ffffff" />
    </g>
  </g>
</svg>
