<?xml version="1.0" encoding="UTF-8" standalone="no"?>
<svg
   xmlns:osb="http://www.openswatchbook.org/uri/2009/osb"
   xmlns:dc="http://purl.org/dc/elements/1.1/"
   xmlns:cc="http://creativecommons.org/ns#"
   xmlns:rdf="http://www.w3.org/1999/02/22-rdf-syntax-ns#"
   xmlns:svg="http://www.w3.org/2000/svg"
   xmlns="http://www.w3.org/2000/svg"
   xmlns:xlink="http://www.w3.org/1999/xlink"
   xmlns:sodipodi="http://sodipodi.sourceforge.net/DTD/sodipodi-0.dtd"
   xmlns:inkscape="http://www.inkscape.org/namespaces/inkscape"
   width="256"
   height="256"
   viewBox="0 0 67.733332 67.733335"
   version="1.1"
   id="svg16"
   inkscape:export-filename="/Users/jaccokulman/EventBridgeRule.png"
   inkscape:export-xdpi="59.902462"
   inkscape:export-ydpi="59.902462"
   inkscape:version="1.0.2 (e86c8708, 2021-01-15)"
   sodipodi:docname="Events-Rule-Schedule.svg">
  <defs
     id="defs10">
    <linearGradient
       inkscape:collect="always"
       id="linearGradient2997">
      <stop
         style="stop-color:#b0084d;stop-opacity:1"
         offset="0"
         id="stop2993" />
      <stop
         style="stop-color:#ff4f8b;stop-opacity:1"
         offset="1"
         id="stop2995" />
    </linearGradient>
    <linearGradient
       id="linearGradient2979"
       osb:paint="solid">
      <stop
         style="stop-color:#b0084d;stop-opacity:1;"
         offset="0"
         id="stop2977" />
    </linearGradient>
    <linearGradient
       inkscape:collect="always"
       xlink:href="#linearGradient2997"
       id="linearGradient2999"
       x1="34.017857"
       y1="159.50595"
       x2="131.53572"
       y2="61.988094"
       gradientUnits="userSpaceOnUse"
       gradientTransform="matrix(0.62398397,0,0,0.62398397,-17.784602,-35.237677)" />
    <linearGradient
       x1="0"
       y1="1"
       x2="1"
       y2="0"
       id="linearGradient-1">
      <stop
         stop-color="#B0084D"
         offset="0%"
         id="stop128" />
      <stop
         stop-color="#FF4F8B"
         offset="100%"
         id="stop130" />
    </linearGradient>
  </defs>
  <sodipodi:namedview
     id="base"
     pagecolor="#ffffff"
     bordercolor="#666666"
     borderopacity="1.0"
     inkscape:pageopacity="0.0"
     inkscape:pageshadow="2"
     inkscape:zoom="1.940693"
     inkscape:cx="320.50625"
     inkscape:cy="218.55886"
     inkscape:document-units="mm"
     inkscape:current-layer="layer1"
     inkscape:document-rotation="0"
     showgrid="false"
     inkscape:window-width="1792"
     inkscape:window-height="1067"
     inkscape:window-x="0"
     inkscape:window-y="25"
     inkscape:window-maximized="0"
     units="px" />
  <metadata
     id="metadata13">
    <rdf:RDF>
      <cc:Work
         rdf:about="">
        <dc:format>image/svg+xml</dc:format>
        <dc:type
           rdf:resource="http://purl.org/dc/dcmitype/StillImage" />
        <dc:title></dc:title>
      </cc:Work>
    </rdf:RDF>
  </metadata>
  <g
     inkscape:label="Laag 1"
     inkscape:groupmode="layer"
     id="layer1">
    <circle
       style="opacity:1;fill:#ffffff;fill-opacity:1;fill-rule:evenodd;stroke:none;stroke-width:1.87195;stroke-miterlimit:4;stroke-dasharray:none;stroke-opacity:1"
       id="path3073"
       cx="33.866665"
       cy="33.866665"
       r="33.866665" />
    <path
       id="rect2991"
       style="fill:url(#linearGradient2999);fill-opacity:1;fill-rule:evenodd;stroke:#d45500;stroke-width:0.165096"
       d="M 33.866831,4.6171507 A 28.946112,29.249454 0 0 0 4.9205787,33.866832 28.946112,29.249454 0 0 0 33.866831,63.116183 28.946112,29.249454 0 0 0 62.812755,33.866832 28.946112,29.249454 0 0 0 33.866831,4.6171507 Z"
       inkscape:export-xdpi="69.613052"
       inkscape:export-ydpi="69.613052" />
    <g
       id="g1982"
       transform="translate(-33.931537,-57.841806)">
      <path
         id="Amazon-Cloudwatch_Event-time-based_Resource-Icon_light-bg"
         style="mix-blend-mode:normal;fill:#ffffff;fill-rule:evenodd;stroke:none;stroke-width:0.628046"
         d="m 65.69847,93.414512 h -3.383306 v -1.256105 h 2.127204 v -2.679256 h 1.256102 z m -0.628055,-4.964729 c 2.090779,0 3.791543,1.701367 3.791543,3.79215 0,2.090783 -1.700764,3.792176 -3.791543,3.792176 -2.090775,0 -3.792165,-1.701393 -3.792165,-3.792176 0,-2.090783 1.70139,-3.79215 3.792165,-3.79215 z m 0,8.840399 c 2.783523,0 5.047645,-2.264737 5.047645,-5.048249 0,-2.784148 -2.264122,-5.048261 -5.047645,-5.048261 -2.784142,0 -5.048263,2.264113 -5.048263,5.048261 0,2.783512 2.264121,5.048249 5.048263,5.048249 z" />
      <path
         style="fill:#ffffff;fill-rule:evenodd;stroke:none;stroke-width:1.02692"
         d="m 72.889912,96.439467 -2.349589,4.069703 c -0.183816,0.3171 -0.522701,0.51345 -0.88931,0.51345 h -9.08206 c -0.367634,0 -0.706519,-0.19601 -0.88931,-0.51345 L 55.13861,92.643979 c -0.183816,-0.318263 -0.183816,-0.709576 0,-1.026903 l 4.541033,-7.865152 c 0.182807,-0.318263 0.521673,-0.513452 0.88931,-0.513452 h 9.08206 c 0.366625,0 0.705494,0.195227 0.88931,0.513452 l 1.549619,2.686416 -1.778621,1.026909 -1.253866,-2.172968 h -7.895969 l -3.948499,6.83824 3.948499,6.838247 h 7.895969 l 2.052809,-3.55621 z"
         id="path1197" />
      <path
         style="fill:#ffffff;fill-rule:evenodd;stroke:none;stroke-width:1.02692"
         d="m 64.431191,78.535156 -0.804078,-6.35456 -2.037404,0.25888 0.804078,6.354561 z"
         id="path1195" />
      <path
         style="fill:#ffffff;fill-rule:evenodd;stroke:none;stroke-width:1.02692"
         d="m 57.844538,80.622888 -3.913583,-5.096604 -1.628691,1.251825 3.913583,5.095556 z"
         id="path1193" />
      <path
         style="fill:#ffffff;fill-rule:evenodd;stroke:none;stroke-width:1.02692"
         d="m 53.192603,85.685609 -5.97358,-2.47283 -0.78662,1.897741 5.974609,2.47283 z"
         id="path1191" />
      <path
         style="fill:#ffffff;fill-rule:evenodd;stroke:none;stroke-width:1.02692"
         d="m 51.726165,92.360571 -6.434667,0.814324 0.258763,2.038444 6.434667,-0.814331 z"
         id="path1189" />
      <path
         style="fill:#ffffff;fill-rule:evenodd;stroke:none;stroke-width:1.02692"
         d="m 48.662869,102.73962 1.233326,1.64204 5.170531,-3.88278 -1.233327,-1.642043 z"
         id="path1187" />
      <path
         style="fill:#ffffff;fill-rule:evenodd;stroke:none;stroke-width:1.02692"
         d="m 56.423286,109.34785 1.888502,0.8061 2.522108,-5.90988 -1.889527,-0.80715 z"
         id="path1185" />
      <path
         style="fill:#ffffff;fill-rule:evenodd;stroke:none;stroke-width:1.02692"
         d="m 65.695326,104.88176 0.804078,6.35459 2.038432,-0.25887 -0.805106,-6.35456 z"
         id="path1183" />
      <path
         style="fill:#ffffff;fill-rule:evenodd;stroke:none;stroke-width:1.02692"
         d="m 72.281976,102.79507 3.914624,5.09556 1.627662,-1.25077 -3.913592,-5.0966 z"
         id="path1181" />
      <path
         style="fill:#ffffff;fill-rule:evenodd;stroke:none;stroke-width:1.02692"
         d="m 81.462632,80.677304 -1.233323,-1.642008 -5.170544,3.882778 1.23333,1.643053 z"
         id="path1179" />
      <path
         style="fill:#ffffff;fill-rule:evenodd;stroke:none;stroke-width:1.02692"
         d="m 73.703231,74.069103 -1.889531,-0.806139 -2.521083,5.910932 1.889532,0.806139 z"
         id="path1177" />
      <path
         style="fill:#ffffff;fill-rule:evenodd;stroke:none;stroke-width:1.02692"
         d="m 69.560113,92.632685 v -2.053806 h 17.23941 l -4.340776,-4.340807 1.452061,-1.452067 6.093727,6.09374 c 0.400498,0.401521 0.400498,1.050546 0,1.452061 v 0 l -6.093727,6.09374 -1.452061,-1.452055 4.340776,-4.340806 z"
         id="Amazon-EventBridge-Rule"
         sodipodi:nodetypes="ccccccsccccc" />
    </g>
  </g>
</svg>
