<?xml version="1.0" encoding="UTF-8" standalone="no"?>
<svg
   xmlns:osb="http://www.openswatchbook.org/uri/2009/osb"
   xmlns:dc="http://purl.org/dc/elements/1.1/"
   xmlns:cc="http://creativecommons.org/ns#"
   xmlns:rdf="http://www.w3.org/1999/02/22-rdf-syntax-ns#"
   xmlns:svg="http://www.w3.org/2000/svg"
   xmlns="http://www.w3.org/2000/svg"
   xmlns:xlink="http://www.w3.org/1999/xlink"
   xmlns:sodipodi="http://sodipodi.sourceforge.net/DTD/sodipodi-0.dtd"
   xmlns:inkscape="http://www.inkscape.org/namespaces/inkscape"
   width="256"
   height="256"
   viewBox="0 0 67.733332 67.733335"
   version="1.1"
   id="svg16"
   inkscape:export-filename="/Users/jaccokulman/bitmap.png"
   inkscape:export-xdpi="59.900002"
   inkscape:export-ydpi="59.900002"
   inkscape:version="1.0.2 (e86c8708, 2021-01-15)"
   sodipodi:docname="Events-Bus.svg">
  <defs
     id="defs10">
    <linearGradient
       inkscape:collect="always"
       id="linearGradient2997">
      <stop
         style="stop-color:#b0084d;stop-opacity:1"
         offset="0"
         id="stop2993" />
      <stop
         style="stop-color:#ff4f8b;stop-opacity:1"
         offset="1"
         id="stop2995" />
    </linearGradient>
    <linearGradient
       id="linearGradient2979"
       osb:paint="solid">
      <stop
         style="stop-color:#b0084d;stop-opacity:1;"
         offset="0"
         id="stop2977" />
    </linearGradient>
    <linearGradient
       inkscape:collect="always"
       xlink:href="#linearGradient2997"
       id="linearGradient2999"
       x1="34.017857"
       y1="159.50595"
       x2="131.53572"
       y2="61.988094"
       gradientUnits="userSpaceOnUse"
       gradientTransform="matrix(0.62398397,0,0,0.62398397,-17.784602,-35.237677)" />
    <linearGradient
       x1="0"
       y1="1"
       x2="1"
       y2="0"
       id="linearGradient-1">
      <stop
         stop-color="#B0084D"
         offset="0%"
         id="stop128" />
      <stop
         stop-color="#FF4F8B"
         offset="100%"
         id="stop130" />
    </linearGradient>
  </defs>
  <sodipodi:namedview
     id="base"
     pagecolor="#ffffff"
     bordercolor="#666666"
     borderopacity="1.0"
     inkscape:pageopacity="0.0"
     inkscape:pageshadow="2"
     inkscape:zoom="1.5759173"
     inkscape:cx="108.92889"
     inkscape:cy="205.60173"
     inkscape:document-units="mm"
     inkscape:current-layer="layer1"
     inkscape:document-rotation="0"
     showgrid="false"
     inkscape:window-width="1792"
     inkscape:window-height="1067"
     inkscape:window-x="0"
     inkscape:window-y="25"
     inkscape:window-maximized="0"
     units="px" />
  <metadata
     id="metadata13">
    <rdf:RDF>
      <cc:Work
         rdf:about="">
        <dc:format>image/svg+xml</dc:format>
        <dc:type
           rdf:resource="http://purl.org/dc/dcmitype/StillImage" />
        <dc:title></dc:title>
      </cc:Work>
    </rdf:RDF>
  </metadata>
  <g
     inkscape:label="Laag 1"
     inkscape:groupmode="layer"
     id="layer1">
    <circle
       style="opacity:1;fill:#ffffff;fill-opacity:1;fill-rule:evenodd;stroke:none;stroke-width:1.87195;stroke-miterlimit:4;stroke-dasharray:none;stroke-opacity:1"
       id="path3073"
       cx="33.866665"
       cy="33.866665"
       r="33.866665"
       inkscape:export-filename="/Users/jaccokulman/EventBridge.png"
       inkscape:export-xdpi="59.900002"
       inkscape:export-ydpi="59.900002" />
    <path
       id="rect2991"
       style="fill:url(#linearGradient2999);fill-opacity:1;fill-rule:evenodd;stroke:#d45500;stroke-width:0.165096"
       d="M 33.866831,4.6171507 A 28.946112,29.249454 0 0 0 4.9205787,33.866832 28.946112,29.249454 0 0 0 33.866831,63.116183 28.946112,29.249454 0 0 0 62.812755,33.866832 28.946112,29.249454 0 0 0 33.866831,4.6171507 Z"
       inkscape:export-xdpi="59.900002"
       inkscape:export-ydpi="59.900002"
       inkscape:export-filename="/Users/jaccokulman/EventBridge.png" />
    <g
       id="g423"
       style="fill:#ffffff"
       transform="matrix(0.78990218,0,0,0.78990218,35.541945,-58.597063)"
       inkscape:export-filename="/Users/jaccokulman/EventBridge.png"
       inkscape:export-xdpi="59.900002"
       inkscape:export-ydpi="59.900002">
      <path
         style="fill:#ffffff;fill-rule:evenodd;stroke:none;stroke-width:1.37755"
         d="m -17.144389,116.42229 6.9139,-11.97783 c 0.2467905,-0.42537 0.7011605,-0.68877 1.1943205,-0.68877 h 13.8306 c 0.49202,0 0.94639,0.26293 1.19297,0.68877 l 6.9153015,11.97783 c 0.24679,0.42537 0,1.37753 0,1.37753 l -2.782662,-0.68877 -6.1218295,-10.60024 h -12.23951 l -6.1204305,10.60024 -2.78266,0.68877 c 0,0 -0.24679,-0.9519 0,-1.37753 z"
         id="path294"
         sodipodi:nodetypes="ccssccccccccc" />
      <path
         style="fill:#ffffff;fill-rule:evenodd;stroke:none;stroke-width:1.37755"
         d="m -0.74328853,88.184159 -2.75510997,-0.003 -0.0104,9.642816 2.75505997,0.003 z"
         id="path292" />
      <path
         style="fill:#ffffff;fill-rule:evenodd;stroke:none;stroke-width:1.37755"
         d="m -11.103879,99.405626 -4.95642,-8.495307 -2.38175,1.38857 4.95641,8.495301 z"
         id="path290" />
      <path
         style="fill:#ffffff;fill-rule:evenodd;stroke:none;stroke-width:1.37755"
         d="m -27.670239,101.35347 -1.36654,2.39144 8.5945,4.91097 1.36655,-2.3928 z"
         id="path288" />
      <path
         style="fill:#ffffff;fill-rule:evenodd;stroke:none;stroke-width:1.37755"
         d="m -32.428339,118.48879 9.64288,0.0104 0.003,-2.75507 -9.64288,-0.0104 z"
         id="path286" />
      <path
         style="fill:#ffffff;fill-rule:evenodd;stroke:none;stroke-width:1.37755"
         d="m 18.543773,115.72545 -0.003,2.75512 9.64283,0.0104 0.003,-2.75512 z"
         id="path284" />
      <path
         style="fill:#ffffff;fill-rule:evenodd;stroke:none;stroke-width:1.37755"
         d="m 23.454743,101.39757 -8.60143,4.89441 1.36238,2.3942 8.60143,-4.89441 z"
         id="path282" />
      <path
         style="fill:#ffffff;fill-rule:evenodd;stroke:none;stroke-width:1.37755"
         d="m 14.243063,92.326439 -2.37905,-1.39274 -4.9715715,8.488487 2.37905,1.391324 z"
         id="path280" />
      <path
         style="fill:#ffffff;fill-rule:evenodd;stroke:none;stroke-width:1.37755"
         d="m -17.144389,117.79981 6.9139,11.97783 c 0.24679,0.42537 0.70116,0.68877 1.19432,0.68877 H 4.7944318 c 0.49202,0 0.94639,-0.26293 1.19297,-0.68877 l 6.9153012,-11.97783 c 0.24679,-0.42537 0,-1.37753 0,-1.37753 l -2.782662,0.68877 -6.1218292,10.60024 H -8.241298 l -6.120431,-10.60024 -2.78266,-0.68877 c 0,0 -0.24679,0.9519 0,1.37753 z"
         id="path294-4"
         sodipodi:nodetypes="ccssccccccccc" />
      <path
         style="fill:#ffffff;fill-rule:evenodd;stroke:none;stroke-width:1.37755"
         d="m -0.56160293,145.93022 -2.75510807,0.003 -0.0104,-9.64281 2.75505807,-0.003 z"
         id="path292-5" />
      <path
         style="fill:#ffffff;fill-rule:evenodd;stroke:none;stroke-width:1.37755"
         d="m -10.922187,134.70875 -4.956421,8.4953 -2.381751,-1.38856 4.956412,-8.49531 z"
         id="path290-7" />
      <path
         style="fill:#ffffff;fill-rule:evenodd;stroke:none;stroke-width:1.37755"
         d="m -27.488555,132.7609 -1.366541,-2.39144 8.594505,-4.91097 1.366551,2.3928 z"
         id="path288-8" />
      <path
         style="fill:#ffffff;fill-rule:evenodd;stroke:none;stroke-width:1.37755"
         d="m 23.636423,132.7168 -8.60143,-4.89441 1.36238,-2.3942 8.60143,4.89441 z"
         id="path282-9" />
      <path
         style="fill:#ffffff;fill-rule:evenodd;stroke:none;stroke-width:1.37755"
         d="m 14.424743,141.78794 -2.37905,1.39274 -4.9715702,-8.48849 2.3790498,-1.39133 z"
         id="path280-6" />
    </g>
  </g>
</svg>
