<?xml version="1.0" encoding="UTF-8" standalone="no"?>
<svg
   xmlns:osb="http://www.openswatchbook.org/uri/2009/osb"
   xmlns:dc="http://purl.org/dc/elements/1.1/"
   xmlns:cc="http://creativecommons.org/ns#"
   xmlns:rdf="http://www.w3.org/1999/02/22-rdf-syntax-ns#"
   xmlns:svg="http://www.w3.org/2000/svg"
   xmlns="http://www.w3.org/2000/svg"
   xmlns:xlink="http://www.w3.org/1999/xlink"
   xmlns:sodipodi="http://sodipodi.sourceforge.net/DTD/sodipodi-0.dtd"
   xmlns:inkscape="http://www.inkscape.org/namespaces/inkscape"
   width="210mm"
   height="297mm"
   viewBox="0 0 210 297"
   version="1.1"
   id="svg16"
   inkscape:export-filename="/Users/jaccokulman/EventBridgeRule.png"
   inkscape:export-xdpi="59.902462"
   inkscape:export-ydpi="59.902462"
   inkscape:version="1.0.2 (e86c8708, 2021-01-15)"
   sodipodi:docname="Connection.svg">
  <defs
     id="defs10">
    <linearGradient
       inkscape:collect="always"
       id="linearGradient2997">
      <stop
         style="stop-color:#b0084d;stop-opacity:1"
         offset="0"
         id="stop2993" />
      <stop
         style="stop-color:#ff4f8b;stop-opacity:1"
         offset="1"
         id="stop2995" />
    </linearGradient>
    <linearGradient
       id="linearGradient2979"
       osb:paint="solid">
      <stop
         style="stop-color:#b0084d;stop-opacity:1;"
         offset="0"
         id="stop2977" />
    </linearGradient>
    <linearGradient
       inkscape:collect="always"
       xlink:href="#linearGradient2997"
       id="linearGradient2999"
       x1="34.017857"
       y1="159.50595"
       x2="131.53572"
       y2="61.988094"
       gradientUnits="userSpaceOnUse"
       gradientTransform="translate(3.118491,1.3697201)" />
    <linearGradient
       x1="0%"
       y1="100%"
       x2="100%"
       y2="0%"
       id="linearGradient-1">
      <stop
         stop-color="#B0084D"
         offset="0%"
         id="stop128" />
      <stop
         stop-color="#FF4F8B"
         offset="100%"
         id="stop130" />
    </linearGradient>
  </defs>
  <sodipodi:namedview
     id="base"
     pagecolor="#ffffff"
     bordercolor="#666666"
     borderopacity="1.0"
     inkscape:pageopacity="0.0"
     inkscape:pageshadow="2"
     inkscape:zoom="1.3722772"
     inkscape:cx="271.92347"
     inkscape:cy="541.03347"
     inkscape:document-units="mm"
     inkscape:current-layer="layer1"
     inkscape:document-rotation="0"
     showgrid="false"
     inkscape:window-width="1792"
     inkscape:window-height="1067"
     inkscape:window-x="0"
     inkscape:window-y="25"
     inkscape:window-maximized="0" />
  <metadata
     id="metadata13">
    <rdf:RDF>
      <cc:Work
         rdf:about="">
        <dc:format>image/svg+xml</dc:format>
        <dc:type
           rdf:resource="http://purl.org/dc/dcmitype/StillImage" />
        <dc:title></dc:title>
      </cc:Work>
    </rdf:RDF>
  </metadata>
  <g
     inkscape:label="Laag 1"
     inkscape:groupmode="layer"
     id="layer1">
    <circle
       style="opacity:1;fill:#ffffff;fill-opacity:1;fill-rule:evenodd;stroke:none;stroke-width:3;stroke-miterlimit:4;stroke-dasharray:none;stroke-opacity:1"
       id="path3073"
       cx="85.895088"
       cy="112.11671"
       r="54.274899" />
    <path
       id="rect2991"
       style="fill:url(#linearGradient2999);fill-opacity:1;fill-rule:evenodd;stroke:#d45500;stroke-width:0.264583"
       d="M 85.895349,65.241276 A 46.389192,46.875329 0 0 0 39.505933,112.11697 46.389192,46.875329 0 0 0 85.895349,158.99214 46.389192,46.875329 0 0 0 132.28424,112.11697 46.389192,46.875329 0 0 0 85.895349,65.241276 Z"
       inkscape:export-xdpi="69.613052"
       inkscape:export-ydpi="69.613052" />
    <path
       d="m 96.208757,114.67152 c 0,-0.59813 0,-2.18781 -2.607892,-2.7219 -0.693356,-0.14224 -1.204005,-0.7324 -1.24617,-1.43983 -0.05932,-1.02597 -0.480967,-1.66311 -1.102494,-1.66311 -0.285782,0 -0.560587,0.14696 -0.75426,0.40312 -0.343565,0.45918 -0.90574,0.69179 -1.478851,0.60904 -0.568437,-0.0856 -1.043153,-0.47335 -1.238355,-1.01193 -0.306086,-0.84483 -0.752697,-1.57097 -1.291458,-2.10193 -0.493479,-0.49047 -1.624073,-1.39297 -3.224726,-1.39297 -0.562181,0 -1.183702,0.11273 -1.855196,0.39072 -1.436686,0.6012 -2.606334,2.40177 -2.606334,4.01495 0,0.19064 0.01062,0.37301 0.03305,0.55598 0.09373,0.7808 -0.409138,1.50694 -1.169649,1.69899 -1.382025,0.34823 -2.08319,1.22901 -2.08319,2.62039 l 0.0077,0.22782 c 0.0703,1.29304 1.5866,2.48144 3.179445,2.48144 h 14.663541 c 2.774988,0 2.774988,-2.0098 2.774982,-2.67037 z m 3.123227,0 c 0,4.18669 -3.013913,5.72798 -5.667093,5.79202 -0.02656,0.002 -0.05312,0.002 -0.08121,0.002 H 78.770217 c -3.252839,0 -6.137141,-2.4939 -6.297987,-5.44533 -0.0077,-0.13457 -0.01239,-0.25439 -0.01239,-0.38719 0,-2.3971 1.185266,-4.2757 3.227855,-5.22205 0.149915,-2.74373 2.04259,-5.51562 4.519307,-6.54939 2.99986,-1.24464 6.165247,-0.62781 8.47956,1.66311 0.434103,0.42791 0.821409,0.91354 1.160275,1.45388 1.948893,-0.73399 4.723881,0.13752 5.46096,3.20287 2.571978,0.87759 4.024275,2.83274 4.024275,5.4906 z m 17.796136,-2.55481 c 0,-17.221494 -14.01079,-31.233867 -31.232251,-31.233867 -17.223029,0 -31.233821,14.012373 -31.233821,31.233867 0,17.22303 14.010792,31.23381 31.233821,31.23381 17.221461,0 31.232251,-14.01078 31.232251,-31.23381 z m 3.12323,0 c 0,18.94546 -15.41156,34.35705 -34.355481,34.35705 -18.945486,0 -34.357042,-15.41159 -34.357042,-34.35705 0,-18.945515 15.411556,-34.357053 34.357042,-34.357053 18.943921,0 34.355481,15.411538 34.355481,34.357053 z m -53.607047,-5.67959 -2.208115,-2.20811 -6.78521,6.78364 c -0.293573,0.29334 -0.457535,0.6902 -0.457535,1.10406 0,0.41551 0.163962,0.81202 0.457535,1.10406 l 6.78521,6.78677 2.208115,-2.20811 -4.119529,-4.12113 h 7.737788 v -3.12318 h -7.737788 z m 47.496457,4.57553 -6.78521,-6.78364 -2.20812,2.20811 4.11953,4.118 h -7.77995 v 3.12318 h 7.77995 l -4.11953,4.12113 2.20812,2.20811 6.78521,-6.78677 c 0.29357,-0.29216 0.45753,-0.68867 0.45753,-1.10406 0,-0.41374 -0.16396,-0.81048 -0.45753,-1.10406 z m -26.683281,24.47672 v -12.4804 h -3.123227 v 12.4804 l -4.119529,-4.12112 -2.208122,2.20812 6.783646,6.78677 c 0.293573,0.29334 0.690234,0.45742 1.105622,0.45742 0.413859,0 0.810472,-0.16408 1.104057,-0.45742 l 6.78521,-6.78677 -2.208121,-2.20812 z m -7.242756,-42.624261 -2.208122,-2.208115 6.783646,-6.78518 c 0.61059,-0.609044 1.599089,-0.609044 2.209679,0 l 6.78521,6.78518 -2.208121,2.208115 -4.119536,-4.119529 V 100.0517 H 84.334252 V 88.74558 Z"
       id="AWS-Amazon-VPC_Peering-connection_Resource-Icon_light-bg"
       fill="#a166ff"
       style="fill:#ffffff;fill-rule:evenodd;stroke:none;stroke-width:1.56161" />
  </g>
</svg>
