<?xml version="1.0" encoding="UTF-8" standalone="no"?>
<svg
   xmlns:osb="http://www.openswatchbook.org/uri/2009/osb"
   xmlns:dc="http://purl.org/dc/elements/1.1/"
   xmlns:cc="http://creativecommons.org/ns#"
   xmlns:rdf="http://www.w3.org/1999/02/22-rdf-syntax-ns#"
   xmlns:svg="http://www.w3.org/2000/svg"
   xmlns="http://www.w3.org/2000/svg"
   xmlns:xlink="http://www.w3.org/1999/xlink"
   xmlns:sodipodi="http://sodipodi.sourceforge.net/DTD/sodipodi-0.dtd"
   xmlns:inkscape="http://www.inkscape.org/namespaces/inkscape"
   width="256"
   height="256"
   viewBox="0 0 67.733332 67.733335"
   version="1.1"
   id="svg16"
   inkscape:export-filename="/Users/jaccokulman/EventBridgeRule.png"
   inkscape:export-xdpi="59.902462"
   inkscape:export-ydpi="59.902462"
   inkscape:version="1.0.2 (e86c8708, 2021-01-15)"
   sodipodi:docname="EventSource.svg">
  <defs
     id="defs10">
    <linearGradient
       inkscape:collect="always"
       id="linearGradient2997">
      <stop
         style="stop-color:#b0084d;stop-opacity:1"
         offset="0"
         id="stop2993" />
      <stop
         style="stop-color:#ff4f8b;stop-opacity:1"
         offset="1"
         id="stop2995" />
    </linearGradient>
    <linearGradient
       id="linearGradient2979"
       osb:paint="solid">
      <stop
         style="stop-color:#b0084d;stop-opacity:1;"
         offset="0"
         id="stop2977" />
    </linearGradient>
    <linearGradient
       inkscape:collect="always"
       xlink:href="#linearGradient2997"
       id="linearGradient2999"
       x1="34.017857"
       y1="159.50595"
       x2="131.53572"
       y2="61.988094"
       gradientUnits="userSpaceOnUse"
       gradientTransform="matrix(0.62398397,0,0,0.62398397,-17.784602,-35.237677)" />
    <linearGradient
       x1="0"
       y1="1"
       x2="1"
       y2="0"
       id="linearGradient-1">
      <stop
         stop-color="#B0084D"
         offset="0%"
         id="stop128" />
      <stop
         stop-color="#FF4F8B"
         offset="100%"
         id="stop130" />
    </linearGradient>
  </defs>
  <sodipodi:namedview
     id="base"
     pagecolor="#ffffff"
     bordercolor="#666666"
     borderopacity="1.0"
     inkscape:pageopacity="0.0"
     inkscape:pageshadow="2"
     inkscape:zoom="1.3722772"
     inkscape:cx="271.92347"
     inkscape:cy="541.03347"
     inkscape:document-units="mm"
     inkscape:current-layer="layer1"
     inkscape:document-rotation="0"
     showgrid="false"
     inkscape:window-width="1792"
     inkscape:window-height="1067"
     inkscape:window-x="0"
     inkscape:window-y="25"
     inkscape:window-maximized="0"
     units="px" />
  <metadata
     id="metadata13">
    <rdf:RDF>
      <cc:Work
         rdf:about="">
        <dc:format>image/svg+xml</dc:format>
        <dc:type
           rdf:resource="http://purl.org/dc/dcmitype/StillImage" />
        <dc:title></dc:title>
      </cc:Work>
    </rdf:RDF>
  </metadata>
  <g
     inkscape:label="Laag 1"
     inkscape:groupmode="layer"
     id="layer1">
    <circle
       style="opacity:1;fill:#ffffff;fill-opacity:1;fill-rule:evenodd;stroke:none;stroke-width:1.87195;stroke-miterlimit:4;stroke-dasharray:none;stroke-opacity:1"
       id="path3073"
       cx="33.866665"
       cy="33.866665"
       r="33.866665" />
    <path
       id="rect2991"
       style="fill:url(#linearGradient2999);fill-opacity:1;fill-rule:evenodd;stroke:#d45500;stroke-width:0.165096"
       d="M 33.866831,4.6171507 A 28.946112,29.249454 0 0 0 4.9205787,33.866832 28.946112,29.249454 0 0 0 33.866831,63.116183 28.946112,29.249454 0 0 0 62.812755,33.866832 28.946112,29.249454 0 0 0 33.866831,4.6171507 Z"
       inkscape:export-xdpi="69.613052"
       inkscape:export-ydpi="69.613052" />
    <path
       d="m 40.839423,31.094371 -5.94484,3.389768 -0.03826,6.843294 5.945822,-3.388801 z m -13.953359,6.810934 6.007616,3.512356 0.03922,-7.023757 -6.007615,-3.512356 z m 0.977891,-8.748074 6.128259,3.582978 6.045869,-3.447636 -6.126298,-3.582013 z m 6.488225,14.715461 c -0.151064,0.0853 -0.317809,0.12863 -0.485514,0.12863 -0.133381,0 -0.262871,-0.0371 -0.387429,-0.0893 L 25.407946,39.313849 C 25.104854,39.136282 24.92047,38.811648 24.921275,38.461481 l 0.05216,-9.289462 c 0.0019,-0.318805 0.163779,-0.609108 0.421759,-0.790575 l 8.036964,-4.656033 c 0.304056,-0.171638 0.677757,-0.170526 0.980834,0.0074 l 7.931033,4.8375 c 0.29034,0.179421 0.468839,0.495306 0.466911,0.837618 l -0.05004,9.10903 c -0.0019,0.350323 -0.190282,0.672842 -0.495321,0.847445 z m 8.811824,-29.30636 -1.804739,-0.769963 -2.74928,6.449008 1.803756,0.770927 z m 8.511684,7.154209 -1.177982,-1.56836 -5.641764,4.235243 1.177989,1.569324 z m -3.275985,11.296293 7.020818,-0.888666 -0.247191,-1.946929 -7.020818,0.889595 z m -1.529122,7.292482 6.519609,2.697316 0.749355,-1.812582 -6.519609,-2.69732 z m -5.017954,5.567246 4.270558,5.56033 1.555605,-1.19564 -4.270559,-5.55934 z m -7.159117,2.34417 0.877848,6.93353 1.945975,-0.24727 -0.876865,-6.93352 z m -10.125165,4.94538 1.804742,0.76996 2.751239,-6.44801 -1.804736,-0.76996 z m -8.511683,-7.15325 1.178963,1.56936 5.641766,-4.23721 -1.178967,-1.568354 z m 3.276966,-11.296252 -7.020816,0.889626 0.247189,1.945969 7.02082,-0.888628 z m 1.528146,-7.292519 -6.519614,-2.697283 -0.748377,1.811581 6.518632,2.697321 z m 0.748377,-11.128548 -1.555604,1.195649 4.269574,5.561307 1.555604,-1.195611 z m 9.481733,3.463315 -0.876865,-6.932524 1.945976,-0.247263 0.877847,6.932524 z"
       id="Amazon-EventBridge-Saas-Partner-Event_48"
       fill="#ff4f8b"
       style="fill:#ffffff;fill-rule:evenodd;stroke:none;stroke-width:0.980834" />
  </g>
</svg>
