<?xml version="1.0" encoding="UTF-8" standalone="no"?>
<svg
   xmlns:osb="http://www.openswatchbook.org/uri/2009/osb"
   xmlns:dc="http://purl.org/dc/elements/1.1/"
   xmlns:cc="http://creativecommons.org/ns#"
   xmlns:rdf="http://www.w3.org/1999/02/22-rdf-syntax-ns#"
   xmlns:svg="http://www.w3.org/2000/svg"
   xmlns="http://www.w3.org/2000/svg"
   xmlns:xlink="http://www.w3.org/1999/xlink"
   xmlns:sodipodi="http://sodipodi.sourceforge.net/DTD/sodipodi-0.dtd"
   xmlns:inkscape="http://www.inkscape.org/namespaces/inkscape"
   width="256"
   height="256"
   viewBox="0 0 67.733332 67.733335"
   version="1.1"
   id="svg16"
   inkscape:export-filename="/Users/jaccokulman/EventBridgeRule.png"
   inkscape:export-xdpi="59.902462"
   inkscape:export-ydpi="59.902462"
   inkscape:version="1.0.2 (e86c8708, 2021-01-15)"
   sodipodi:docname="Events-Target.svg">
  <defs
     id="defs10">
    <linearGradient
       inkscape:collect="always"
       id="linearGradient2997">
      <stop
         style="stop-color:#b0084d;stop-opacity:1"
         offset="0"
         id="stop2993" />
      <stop
         style="stop-color:#ff4f8b;stop-opacity:1"
         offset="1"
         id="stop2995" />
    </linearGradient>
    <linearGradient
       id="linearGradient2979"
       osb:paint="solid">
      <stop
         style="stop-color:#b0084d;stop-opacity:1;"
         offset="0"
         id="stop2977" />
    </linearGradient>
    <linearGradient
       inkscape:collect="always"
       xlink:href="#linearGradient2997"
       id="linearGradient2999"
       x1="34.017857"
       y1="159.50595"
       x2="131.53572"
       y2="61.988094"
       gradientUnits="userSpaceOnUse"
       gradientTransform="matrix(0.62398397,0,0,0.62398397,-17.784602,-35.237677)" />
    <linearGradient
       x1="0"
       y1="1"
       x2="1"
       y2="0"
       id="linearGradient-1">
      <stop
         stop-color="#B0084D"
         offset="0%"
         id="stop128" />
      <stop
         stop-color="#FF4F8B"
         offset="100%"
         id="stop130" />
    </linearGradient>
  </defs>
  <sodipodi:namedview
     id="base"
     pagecolor="#ffffff"
     bordercolor="#666666"
     borderopacity="1.0"
     inkscape:pageopacity="0.0"
     inkscape:pageshadow="2"
     inkscape:zoom="1.3722772"
     inkscape:cx="271.92347"
     inkscape:cy="541.03347"
     inkscape:document-units="mm"
     inkscape:current-layer="layer1"
     inkscape:document-rotation="0"
     showgrid="false"
     inkscape:window-width="1792"
     inkscape:window-height="1067"
     inkscape:window-x="0"
     inkscape:window-y="25"
     inkscape:window-maximized="0"
     units="px" />
  <metadata
     id="metadata13">
    <rdf:RDF>
      <cc:Work
         rdf:about="">
        <dc:format>image/svg+xml</dc:format>
        <dc:type
           rdf:resource="http://purl.org/dc/dcmitype/StillImage" />
        <dc:title></dc:title>
      </cc:Work>
    </rdf:RDF>
  </metadata>
  <g
     inkscape:label="Laag 1"
     inkscape:groupmode="layer"
     id="layer1">
    <circle
       style="opacity:1;fill:#ffffff;fill-opacity:1;fill-rule:evenodd;stroke:none;stroke-width:1.87195;stroke-miterlimit:4;stroke-dasharray:none;stroke-opacity:1"
       id="path3073"
       cx="33.866665"
       cy="33.866665"
       r="33.866665" />
    <path
       id="rect2991"
       style="fill:url(#linearGradient2999);fill-opacity:1;fill-rule:evenodd;stroke:#d45500;stroke-width:0.165096"
       d="M 33.866831,4.6171507 A 28.946112,29.249454 0 0 0 4.9205787,33.866832 28.946112,29.249454 0 0 0 33.866831,63.116183 28.946112,29.249454 0 0 0 62.812755,33.866832 28.946112,29.249454 0 0 0 33.866831,4.6171507 Z"
       inkscape:export-xdpi="69.613052"
       inkscape:export-ydpi="69.613052" />
    <path
       d="M 54.368553,32.402235 H 49.975282 A 16.108622,16.108622 0 0 0 35.331084,17.831279 v -4.466487 a 1.4644203,1.4644203 0 0 0 -2.928837,0 v 4.466487 A 16.108622,16.108622 0 0 0 17.831262,32.402235 h -4.466481 a 1.4644311,1.4644311 0 0 0 0,2.928862 h 4.466481 a 16.108622,16.108622 0 0 0 14.570985,14.644175 v 4.39327 a 1.4644203,1.4644203 0 0 0 2.928837,0 v -4.39327 A 16.108622,16.108622 0 0 0 49.975282,35.331097 h 4.393271 a 1.4644311,1.4644311 0 0 0 0,-2.928862 z m -7.409972,0 h -4.393259 a 8.7865211,8.7865211 0 0 0 -7.234238,-7.190279 v -4.39326 a 13.179782,13.179782 0 0 1 11.627497,11.583539 z m -13.091915,7.322121 a 5.8576807,5.8576807 0 1 1 5.857678,-5.857718 5.8576807,5.8576807 0 0 1 -5.857678,5.857718 z M 32.402247,20.774749 v 4.393261 a 8.7865211,8.7865211 0 0 0 -7.190308,7.234225 h -4.39326 A 13.179782,13.179782 0 0 1 32.402247,20.774749 Z M 20.774749,35.331097 h 4.393261 a 8.7865211,8.7865211 0 0 0 7.234237,7.190275 v 4.39326 A 13.179782,13.179782 0 0 1 20.774749,35.331097 Z m 14.556335,11.627485 v -4.39326 a 8.7865211,8.7865211 0 0 0 7.190302,-7.234225 h 4.393261 A 13.179782,13.179782 0 0 1 35.331084,46.958582 Z"
       id="path1365"
       style="fill:#ffffff;stroke-width:1.46442" />
  </g>
</svg>
