<?xml version="1.0" encoding="UTF-8" standalone="no"?>
<svg
   xmlns:osb="http://www.openswatchbook.org/uri/2009/osb"
   xmlns:dc="http://purl.org/dc/elements/1.1/"
   xmlns:cc="http://creativecommons.org/ns#"
   xmlns:rdf="http://www.w3.org/1999/02/22-rdf-syntax-ns#"
   xmlns:svg="http://www.w3.org/2000/svg"
   xmlns="http://www.w3.org/2000/svg"
   xmlns:xlink="http://www.w3.org/1999/xlink"
   xmlns:sodipodi="http://sodipodi.sourceforge.net/DTD/sodipodi-0.dtd"
   xmlns:inkscape="http://www.inkscape.org/namespaces/inkscape"
   width="256"
   height="256"
   viewBox="0 0 67.733332 67.733335"
   version="1.1"
   id="svg16"
   inkscape:export-filename="/Users/jaccokulman/EventBridgeRule.png"
   inkscape:export-xdpi="59.902462"
   inkscape:export-ydpi="59.902462"
   inkscape:version="1.0.2 (e86c8708, 2021-01-15)"
   sodipodi:docname="Events-Archive.svg">
  <defs
     id="defs10">
    <linearGradient
       inkscape:collect="always"
       id="linearGradient2997">
      <stop
         style="stop-color:#b0084d;stop-opacity:1"
         offset="0"
         id="stop2993" />
      <stop
         style="stop-color:#ff4f8b;stop-opacity:1"
         offset="1"
         id="stop2995" />
    </linearGradient>
    <linearGradient
       id="linearGradient2979"
       osb:paint="solid">
      <stop
         style="stop-color:#b0084d;stop-opacity:1;"
         offset="0"
         id="stop2977" />
    </linearGradient>
    <linearGradient
       inkscape:collect="always"
       xlink:href="#linearGradient2997"
       id="linearGradient2999"
       x1="34.017857"
       y1="159.50595"
       x2="131.53572"
       y2="61.988094"
       gradientUnits="userSpaceOnUse"
       gradientTransform="matrix(0.62398397,0,0,0.62398397,-17.784602,-35.237677)" />
    <linearGradient
       x1="0"
       y1="1"
       x2="1"
       y2="0"
       id="linearGradient-1">
      <stop
         stop-color="#B0084D"
         offset="0%"
         id="stop128" />
      <stop
         stop-color="#FF4F8B"
         offset="100%"
         id="stop130" />
    </linearGradient>
  </defs>
  <sodipodi:namedview
     id="base"
     pagecolor="#ffffff"
     bordercolor="#666666"
     borderopacity="1.0"
     inkscape:pageopacity="0.0"
     inkscape:pageshadow="2"
     inkscape:zoom="0.97034651"
     inkscape:cx="320.50625"
     inkscape:cy="415.71429"
     inkscape:document-units="mm"
     inkscape:current-layer="layer1"
     inkscape:document-rotation="0"
     showgrid="false"
     inkscape:window-width="1792"
     inkscape:window-height="1067"
     inkscape:window-x="0"
     inkscape:window-y="25"
     inkscape:window-maximized="0"
     units="px" />
  <metadata
     id="metadata13">
    <rdf:RDF>
      <cc:Work
         rdf:about="">
        <dc:format>image/svg+xml</dc:format>
        <dc:type
           rdf:resource="http://purl.org/dc/dcmitype/StillImage" />
        <dc:title></dc:title>
      </cc:Work>
    </rdf:RDF>
  </metadata>
  <g
     inkscape:label="Laag 1"
     inkscape:groupmode="layer"
     id="layer1">
    <circle
       style="opacity:1;fill:#ffffff;fill-opacity:1;fill-rule:evenodd;stroke:none;stroke-width:1.87195;stroke-miterlimit:4;stroke-dasharray:none;stroke-opacity:1"
       id="path3073"
       cx="33.866665"
       cy="33.866665"
       r="33.866665" />
    <path
       id="rect2991"
       style="fill:url(#linearGradient2999);fill-opacity:1;fill-rule:evenodd;stroke:#d45500;stroke-width:0.165096"
       d="M 33.866831,4.6171507 A 28.946112,29.249454 0 0 0 4.9205787,33.866832 28.946112,29.249454 0 0 0 33.866831,63.116183 28.946112,29.249454 0 0 0 62.812755,33.866832 28.946112,29.249454 0 0 0 33.866831,4.6171507 Z"
       inkscape:export-xdpi="69.613052"
       inkscape:export-ydpi="69.613052" />
    <path
       d="m 36.338584,15.892673 h 7.106533 l 3.750125,6.065637 H 36.338584 Z m -0.898877,7.863405 h 13.368121 c 0.325396,0 0.626518,-0.176322 0.784716,-0.46112 0.159098,-0.285036 0.151011,-0.633739 -0.01972,-0.909671 L 44.710723,14.521882 C 44.547139,14.25655 44.25859,14.094939 43.946673,14.094939 h -8.506968 c -0.497081,0 -0.898881,0.401769 -0.898881,0.898867 v 7.863371 c 0,0.497098 0.4018,0.898901 0.898881,0.898901 z M 31.394754,21.95831 H 20.538098 l 3.750122,-6.065637 h 7.106534 z m 0.898877,-7.863371 h -8.506986 c -0.31191,0 -0.600449,0.161713 -0.764044,0.426943 l -4.862037,7.863405 c -0.170784,0.275864 -0.178869,0.624702 -0.01971,0.909671 0.158213,0.285036 0.459326,0.46112 0.784723,0.46112 h 13.368116 c 0.497081,0 0.898877,-0.401803 0.898877,-0.898901 v -7.863371 c 0,-0.497098 -0.401796,-0.898867 -0.898877,-0.898867 z m 4.044953,37.745696 H 47.908948 V 26.90215 H 36.338584 Z M 48.807828,25.104379 H 35.439707 c -0.497081,0 -0.898881,0.401803 -0.898881,0.898901 v 26.736215 c 0,0.4971 0.4018,0.8989 0.898881,0.8989 h 13.368121 c 0.497078,0 0.898874,-0.4018 0.898874,-0.8989 V 26.00328 c 0,-0.497098 -0.401796,-0.898901 -0.898874,-0.898901 z M 19.824389,51.840635 H 31.394754 V 26.90215 H 19.824389 Z M 32.293631,25.104379 H 18.925512 c -0.497081,0 -0.898881,0.401803 -0.898881,0.898901 v 26.736215 c 0,0.4971 0.4018,0.8989 0.898881,0.8989 h 13.368119 c 0.497081,0 0.898877,-0.4018 0.898877,-0.8989 V 26.00328 c 0,-0.497098 -0.401796,-0.898901 -0.898877,-0.898901 z"
       id="AWS-Amazon-S3-Glacier_Vault_Resource-Icon_light-bg"
       fill="#6cae3e"
       style="fill:#ffffff;fill-rule:evenodd;stroke:none;stroke-width:0.89888" />
  </g>
</svg>
