<?xml version="1.0" encoding="UTF-8" standalone="no"?>
<svg
   xmlns:osb="http://www.openswatchbook.org/uri/2009/osb"
   xmlns:dc="http://purl.org/dc/elements/1.1/"
   xmlns:cc="http://creativecommons.org/ns#"
   xmlns:rdf="http://www.w3.org/1999/02/22-rdf-syntax-ns#"
   xmlns:svg="http://www.w3.org/2000/svg"
   xmlns="http://www.w3.org/2000/svg"
   xmlns:xlink="http://www.w3.org/1999/xlink"
   xmlns:sodipodi="http://sodipodi.sourceforge.net/DTD/sodipodi-0.dtd"
   xmlns:inkscape="http://www.inkscape.org/namespaces/inkscape"
   width="256"
   height="256"
   viewBox="0 0 67.733332 67.733335"
   version="1.1"
   id="svg16"
   inkscape:export-filename="/Users/jaccokulman/EventBridgeRule.png"
   inkscape:export-xdpi="59.902462"
   inkscape:export-ydpi="59.902462"
   inkscape:version="1.0.2 (e86c8708, 2021-01-15)"
   sodipodi:docname="Events-ApiDestination.svg">
  <defs
     id="defs10">
    <linearGradient
       inkscape:collect="always"
       id="linearGradient2997">
      <stop
         style="stop-color:#b0084d;stop-opacity:1"
         offset="0"
         id="stop2993" />
      <stop
         style="stop-color:#ff4f8b;stop-opacity:1"
         offset="1"
         id="stop2995" />
    </linearGradient>
    <linearGradient
       id="linearGradient2979"
       osb:paint="solid">
      <stop
         style="stop-color:#b0084d;stop-opacity:1;"
         offset="0"
         id="stop2977" />
    </linearGradient>
    <linearGradient
       inkscape:collect="always"
       xlink:href="#linearGradient2997"
       id="linearGradient2999"
       x1="34.017857"
       y1="159.50595"
       x2="131.53572"
       y2="61.988094"
       gradientUnits="userSpaceOnUse"
       gradientTransform="matrix(0.62398397,0,0,0.62398397,-17.784602,-35.237677)" />
    <linearGradient
       x1="0"
       y1="1"
       x2="1"
       y2="0"
       id="linearGradient-1">
      <stop
         stop-color="#B0084D"
         offset="0%"
         id="stop128" />
      <stop
         stop-color="#FF4F8B"
         offset="100%"
         id="stop130" />
    </linearGradient>
  </defs>
  <sodipodi:namedview
     id="base"
     pagecolor="#ffffff"
     bordercolor="#666666"
     borderopacity="1.0"
     inkscape:pageopacity="0.0"
     inkscape:pageshadow="2"
     inkscape:zoom="1.3722772"
     inkscape:cx="271.92347"
     inkscape:cy="541.03347"
     inkscape:document-units="mm"
     inkscape:current-layer="layer1"
     inkscape:document-rotation="0"
     showgrid="false"
     inkscape:window-width="1792"
     inkscape:window-height="1067"
     inkscape:window-x="0"
     inkscape:window-y="25"
     inkscape:window-maximized="0"
     units="px" />
  <metadata
     id="metadata13">
    <rdf:RDF>
      <cc:Work
         rdf:about="">
        <dc:format>image/svg+xml</dc:format>
        <dc:type
           rdf:resource="http://purl.org/dc/dcmitype/StillImage" />
        <dc:title></dc:title>
      </cc:Work>
    </rdf:RDF>
  </metadata>
  <g
     inkscape:label="Laag 1"
     inkscape:groupmode="layer"
     id="layer1">
    <circle
       style="opacity:1;fill:#ffffff;fill-opacity:1;fill-rule:evenodd;stroke:none;stroke-width:1.87195;stroke-miterlimit:4;stroke-dasharray:none;stroke-opacity:1"
       id="path3073"
       cx="33.866665"
       cy="33.866665"
       r="33.866665" />
    <path
       id="rect2991"
       style="fill:url(#linearGradient2999);fill-opacity:1;fill-rule:evenodd;stroke:#d45500;stroke-width:0.165096"
       d="M 33.866831,4.6171507 A 28.946112,29.249454 0 0 0 4.9205787,33.866832 28.946112,29.249454 0 0 0 33.866831,63.116183 28.946112,29.249454 0 0 0 62.812755,33.866832 28.946112,29.249454 0 0 0 33.866831,4.6171507 Z"
       inkscape:export-xdpi="69.613052"
       inkscape:export-ydpi="69.613052" />
    <path
       d="m 35.591161,34.729359 h 1.723589 v -1.724498 h -1.723589 z m -2.587192,0 h 1.724495 v -1.724498 h -1.724495 z m -2.586286,0 h 1.724494 v -1.724498 h -1.724494 z m 15.479782,5.463454 -5.953067,5.23852 V 22.423035 l 5.953067,5.237634 z M 40.139521,20.249604 c -0.184266,-0.07853 -0.982841,-0.313427 -1.5375,-0.0068 l -0.464318,0.257433 v 26.851116 l 0.464318,0.25743 c 0.206868,0.11472 0.447158,0.15433 0.678414,0.15433 0.386635,0 0.74346,-0.11028 0.859086,-0.15979 l 0.133702,-0.056 6.750727,-5.941308 c 0.41825,-0.243772 0.680217,-0.682944 0.680217,-1.160804 V 27.405347 c 0,-0.476973 -0.26105,-0.915971 -0.679312,-1.160805 L 40.273226,20.304095 Z M 27.789841,45.432253 21.835873,40.19373 V 27.659745 l 5.953968,-5.237597 z m -0.196933,-25.182649 -0.133701,0.056 -6.75253,5.941308 c -0.416444,0.244802 -0.677513,0.682951 -0.677513,1.159918 v 13.039836 c 0,0.476973 0.261052,0.916895 0.678415,1.159886 l 6.751628,5.942231 0.133701,0.056 c 0.114718,0.0495 0.472451,0.15979 0.859086,0.15979 0.230358,0 0.470644,-0.0396 0.677509,-0.15365 l 0.467033,-0.25743 V 20.500584 l -0.467029,-0.257433 c -0.55285,-0.30455 -1.353217,-0.07238 -1.536599,0.0068 z M 51.933643,41.349997 41.350006,51.933633 H 26.382423 L 15.799693,41.349997 V 26.383336 L 26.382423,15.7997 H 41.350006 L 51.933643,26.383336 Z M 42.097979,13.992991 H 25.634451 L 13.992995,25.635349 V 42.097986 L 25.634451,53.740343 H 42.097979 L 53.740339,42.097986 V 25.635349 Z"
       id="AWS-Amazon-API-Gateway_Endpoint_Resource-Icon_light-bg"
       fill="#ff4f8b"
       style="fill:#ffffff;fill-rule:evenodd;stroke:none;stroke-width:0.903348" />
  </g>
</svg>
