<?xml version="1.0" encoding="UTF-8" standalone="no"?>
<svg
   xmlns:osb="http://www.openswatchbook.org/uri/2009/osb"
   xmlns:dc="http://purl.org/dc/elements/1.1/"
   xmlns:cc="http://creativecommons.org/ns#"
   xmlns:rdf="http://www.w3.org/1999/02/22-rdf-syntax-ns#"
   xmlns:svg="http://www.w3.org/2000/svg"
   xmlns="http://www.w3.org/2000/svg"
   xmlns:xlink="http://www.w3.org/1999/xlink"
   xmlns:sodipodi="http://sodipodi.sourceforge.net/DTD/sodipodi-0.dtd"
   xmlns:inkscape="http://www.inkscape.org/namespaces/inkscape"
   width="256"
   height="256"
   viewBox="0 0 67.733332 67.733335"
   version="1.1"
   id="svg989"
   inkscape:version="1.0.2 (e86c8708, 2021-01-15)"
   sodipodi:docname="Events-Rule.svg">
  <defs
     id="defs983">
    <linearGradient
       inkscape:collect="always"
       id="linearGradient2997">
      <stop
         style="stop-color:#b0084d;stop-opacity:1"
         offset="0"
         id="stop2993" />
      <stop
         style="stop-color:#ff4f8b;stop-opacity:1"
         offset="1"
         id="stop2995" />
    </linearGradient>
    <linearGradient
       id="linearGradient2979"
       osb:paint="solid">
      <stop
         style="stop-color:#b0084d;stop-opacity:1;"
         offset="0"
         id="stop2977" />
    </linearGradient>
    <linearGradient
       inkscape:collect="always"
       xlink:href="#linearGradient2997"
       id="linearGradient2999"
       x1="34.017857"
       y1="159.50595"
       x2="131.53572"
       y2="61.988094"
       gradientUnits="userSpaceOnUse"
       gradientTransform="matrix(0.62398397,0,0,0.62398397,-17.784603,-35.237679)" />
    <linearGradient
       x1="0"
       y1="1"
       x2="1"
       y2="0"
       id="linearGradient-1">
      <stop
         stop-color="#B0084D"
         offset="0%"
         id="stop128" />
      <stop
         stop-color="#FF4F8B"
         offset="100%"
         id="stop130" />
    </linearGradient>
  </defs>
  <sodipodi:namedview
     id="base"
     pagecolor="#ffffff"
     bordercolor="#666666"
     borderopacity="1.0"
     inkscape:pageopacity="0.0"
     inkscape:pageshadow="2"
     inkscape:zoom="1.4"
     inkscape:cx="400"
     inkscape:cy="560"
     inkscape:document-units="mm"
     inkscape:current-layer="layer1"
     inkscape:document-rotation="0"
     showgrid="false"
     inkscape:window-width="1792"
     inkscape:window-height="1067"
     inkscape:window-x="0"
     inkscape:window-y="25"
     inkscape:window-maximized="0"
     units="px" />
  <metadata
     id="metadata986">
    <rdf:RDF>
      <cc:Work
         rdf:about="">
        <dc:format>image/svg+xml</dc:format>
        <dc:type
           rdf:resource="http://purl.org/dc/dcmitype/StillImage" />
        <dc:title></dc:title>
      </cc:Work>
    </rdf:RDF>
  </metadata>
  <g
     inkscape:label="Laag 1"
     inkscape:groupmode="layer"
     id="layer1">
    <circle
       style="fill:#ffffff;fill-opacity:1;fill-rule:evenodd;stroke:none;stroke-width:1.87195;stroke-miterlimit:4;stroke-dasharray:none;stroke-opacity:1"
       id="path3073"
       cx="33.866665"
       cy="33.866665"
       r="33.866665" />
    <path
       id="rect2991"
       style="fill:url(#linearGradient2999);fill-opacity:1;fill-rule:evenodd;stroke:#d45500;stroke-width:0.165096"
       d="M 33.86683,4.6171487 A 28.946112,29.249454 0 0 0 4.9205782,33.866825 28.946112,29.249454 0 0 0 33.86683,63.116185 28.946112,29.249454 0 0 0 62.812755,33.866825 28.946112,29.249454 0 0 0 33.86683,4.6171487 Z"
       inkscape:export-xdpi="69.613052"
       inkscape:export-ydpi="69.613052" />
    <path
       d="m 30.773242,34.735403 v -1.93053 h 20.953821 l -4.080119,-4.08012 1.364865,-1.36488 5.727807,5.72785 c 0.37646,0.3774 0.37646,0.98742 0,1.36487 v 0 l -5.727807,5.7278 -1.364865,-1.36487 4.080119,-4.08012 z m 8.643915,-17.448943 -1.776064,-0.757728 -2.369735,5.556009 1.776102,0.757735 z m 7.293468,6.211413 -1.15925,-1.543451 -4.86008,3.649641 1.159256,1.5444 z m -8.629374,20.78972 3.679553,4.78959 1.529915,-1.17567 -3.678598,-4.79058 z m -6.191181,1.96139 0.7558,5.973 1.916018,-0.24334 -0.756755,-5.97304 z m -8.715328,4.19789 1.775112,0.75773 2.370682,-5.55506 -1.77606,-0.75869 z m -7.294422,-6.21142 1.159257,1.54346 4.860078,-3.64965 -1.159257,-1.54345 z m 2.879353,-9.75583 -6.048301,0.76543 0.243336,1.91604 6.048301,-0.76547 z m 1.378405,-6.2742 -5.61493,-2.32431 -0.739383,1.78379 5.615878,2.32431 z m 4.372603,-4.758693 -3.678603,-4.790581 -1.5309,1.176659 3.678603,4.789595 z m 6.191166,-1.96238 -0.755801,-5.972999 -1.915094,0.243335 0.755801,5.973005 z m 7.950824,16.829253 -2.208523,3.8253 c -0.172924,0.29842 -0.491306,0.48265 -0.835914,0.48265 h -8.536725 c -0.345486,0 -0.664121,-0.18423 -0.835916,-0.48265 l -4.268373,-7.39289 c -0.172926,-0.29916 -0.172926,-0.667 0,-0.96524 l 4.268373,-7.39293 c 0.171831,-0.29915 0.490357,-0.48262 0.835916,-0.48262 h 8.536725 c 0.344758,0 0.663139,0.1835 0.835914,0.48262 l 1.456591,2.52512 -1.671834,0.96528 -1.178593,-2.0425 h -7.421867 l -3.711401,6.42765 3.711401,6.42764 h 7.421867 l 1.929576,-3.34268 z"
       id="Amazon-EventBridge-Rule"
       fill="#b0084d"
       style="fill:#ffffff;fill-rule:evenodd;stroke:none;stroke-width:0.965253" />
  </g>
</svg>
