<?xml version="1.0" encoding="UTF-8" standalone="no"?>
<svg
   xmlns:osb="http://www.openswatchbook.org/uri/2009/osb"
   xmlns:dc="http://purl.org/dc/elements/1.1/"
   xmlns:cc="http://creativecommons.org/ns#"
   xmlns:rdf="http://www.w3.org/1999/02/22-rdf-syntax-ns#"
   xmlns:svg="http://www.w3.org/2000/svg"
   xmlns="http://www.w3.org/2000/svg"
   xmlns:xlink="http://www.w3.org/1999/xlink"
   xmlns:sodipodi="http://sodipodi.sourceforge.net/DTD/sodipodi-0.dtd"
   xmlns:inkscape="http://www.inkscape.org/namespaces/inkscape"
   width="256"
   height="256"
   viewBox="0 0 67.733332 67.733335"
   version="1.1"
   id="svg16"
   inkscape:export-filename="/Users/jaccokulman/EventBridgeRule.png"
   inkscape:export-xdpi="59.902462"
   inkscape:export-ydpi="59.902462"
   inkscape:version="1.0.2 (e86c8708, 2021-01-15)"
   sodipodi:docname="Events-Connection.svg">
  <defs
     id="defs10">
    <linearGradient
       inkscape:collect="always"
       id="linearGradient2997">
      <stop
         style="stop-color:#b0084d;stop-opacity:1"
         offset="0"
         id="stop2993" />
      <stop
         style="stop-color:#ff4f8b;stop-opacity:1"
         offset="1"
         id="stop2995" />
    </linearGradient>
    <linearGradient
       id="linearGradient2979"
       osb:paint="solid">
      <stop
         style="stop-color:#b0084d;stop-opacity:1;"
         offset="0"
         id="stop2977" />
    </linearGradient>
    <linearGradient
       inkscape:collect="always"
       xlink:href="#linearGradient2997"
       id="linearGradient2999"
       x1="34.017857"
       y1="159.50595"
       x2="131.53572"
       y2="61.988094"
       gradientUnits="userSpaceOnUse"
       gradientTransform="matrix(0.62398397,0,0,0.62398397,-17.784602,-35.237677)" />
    <linearGradient
       x1="0"
       y1="1"
       x2="1"
       y2="0"
       id="linearGradient-1">
      <stop
         stop-color="#B0084D"
         offset="0%"
         id="stop128" />
      <stop
         stop-color="#FF4F8B"
         offset="100%"
         id="stop130" />
    </linearGradient>
  </defs>
  <sodipodi:namedview
     id="base"
     pagecolor="#ffffff"
     bordercolor="#666666"
     borderopacity="1.0"
     inkscape:pageopacity="0.0"
     inkscape:pageshadow="2"
     inkscape:zoom="1.3722772"
     inkscape:cx="271.92347"
     inkscape:cy="541.03347"
     inkscape:document-units="mm"
     inkscape:current-layer="layer1"
     inkscape:document-rotation="0"
     showgrid="false"
     inkscape:window-width="1792"
     inkscape:window-height="1067"
     inkscape:window-x="0"
     inkscape:window-y="25"
     inkscape:window-maximized="0"
     units="px" />
  <metadata
     id="metadata13">
    <rdf:RDF>
      <cc:Work
         rdf:about="">
        <dc:format>image/svg+xml</dc:format>
        <dc:type
           rdf:resource="http://purl.org/dc/dcmitype/StillImage" />
        <dc:title></dc:title>
      </cc:Work>
    </rdf:RDF>
  </metadata>
  <g
     inkscape:label="Laag 1"
     inkscape:groupmode="layer"
     id="layer1">
    <circle
       style="opacity:1;fill:#ffffff;fill-opacity:1;fill-rule:evenodd;stroke:none;stroke-width:1.87195;stroke-miterlimit:4;stroke-dasharray:none;stroke-opacity:1"
       id="path3073"
       cx="33.866665"
       cy="33.866665"
       r="33.866665" />
    <path
       id="rect2991"
       style="fill:url(#linearGradient2999);fill-opacity:1;fill-rule:evenodd;stroke:#d45500;stroke-width:0.165096"
       d="M 33.866831,4.6171507 A 28.946112,29.249454 0 0 0 4.9205787,33.866832 28.946112,29.249454 0 0 0 33.866831,63.116183 28.946112,29.249454 0 0 0 62.812755,33.866832 28.946112,29.249454 0 0 0 33.866831,4.6171507 Z"
       inkscape:export-xdpi="69.613052"
       inkscape:export-ydpi="69.613052" />
    <path
       d="m 40.30223,35.460825 c 0,-0.373223 0,-1.365158 -1.627282,-1.698422 -0.432643,-0.08875 -0.75128,-0.457005 -0.777591,-0.89843 -0.03701,-0.640189 -0.300115,-1.037754 -0.687938,-1.037754 -0.178324,0 -0.349797,0.0917 -0.470646,0.25154 -0.214379,0.286521 -0.565168,0.431666 -0.92278,0.380031 -0.354695,-0.05341 -0.65091,-0.295363 -0.772713,-0.631428 -0.190993,-0.52716 -0.469671,-0.98026 -0.805849,-1.31157 -0.307923,-0.306046 -1.013396,-0.869191 -2.012178,-0.869191 -0.350792,0 -0.738611,0.07034 -1.157612,0.243803 -0.896469,0.375139 -1.626311,1.498666 -1.626311,2.505264 0,0.118956 0.0066,0.232752 0.02062,0.346923 0.05849,0.487206 -0.255296,0.940306 -0.729842,1.060142 -0.862362,0.21729 -1.299878,0.766883 -1.299878,1.635082 l 0.0048,0.142156 c 0.04387,0.806836 0.990013,1.548378 1.983923,1.548378 h 9.149814 c 1.731548,0 1.731548,-1.254083 1.731545,-1.666268 z m 1.948844,0 c 0,2.612428 -1.880633,3.574168 -3.536175,3.614128 -0.01657,0.0012 -0.03315,0.0012 -0.05067,0.0012 h -9.243364 c -2.029719,0 -3.829478,-1.556154 -3.929843,-3.397799 -0.0048,-0.08397 -0.0077,-0.158735 -0.0077,-0.2416 0,-1.495752 0.739587,-2.667968 2.01413,-3.258475 0.09354,-1.712044 1.274543,-3.441659 2.819975,-4.086715 1.871864,-0.776635 3.847015,-0.391743 5.291109,1.037754 0.270874,0.267009 0.512546,0.570034 0.723993,0.907198 1.216078,-0.457998 2.947626,0.08581 3.407552,1.99854 1.604873,0.547602 2.511083,1.767584 2.511083,3.426046 z m 11.104504,-1.59416 c 0,-10.745936 -8.742509,-19.489432 -19.488424,-19.489432 -10.746894,0 -19.489404,8.743496 -19.489404,19.489432 0,10.746893 8.74251,19.489393 19.489404,19.489393 10.745915,0 19.488424,-8.7425 19.488424,-19.489393 z m 1.948845,0 c 0,11.821663 -9.616566,21.438253 -21.437269,21.438253 -11.82168,0 -21.438244,-9.61659 -21.438244,-21.438253 0,-11.821698 9.616564,-21.43825 21.438244,-21.43825 11.820703,0 21.437269,9.616552 21.437269,21.43825 z m -33.449938,-3.543973 -1.377828,-1.377825 -4.233863,4.232882 c -0.183185,0.18304 -0.285494,0.430674 -0.285494,0.688916 0,0.259272 0.102309,0.506687 0.285494,0.688916 l 4.233863,4.234835 1.377828,-1.377825 -2.57052,-2.571519 h 4.828256 v -1.948814 h -4.828256 z m 29.637028,2.855057 -4.233863,-4.232882 -1.377831,1.377825 2.570521,2.569566 h -4.854564 v 1.948814 h 4.854564 l -2.570521,2.571519 1.377831,1.377825 4.233863,-4.234835 c 0.183183,-0.182303 0.285491,-0.429719 0.285491,-0.688916 0,-0.258167 -0.102308,-0.505727 -0.285491,-0.688916 z M 34.841573,48.450828 V 40.663261 H 32.89273 v 7.787567 l -2.57052,-2.57151 -1.377833,1.37783 4.232886,4.23484 c 0.183185,0.18304 0.430695,0.28542 0.689891,0.28542 0.258241,0 0.505721,-0.10238 0.688913,-0.28542 l 4.233863,-4.23484 -1.377832,-1.37783 z M 30.32221,21.853975 28.944377,20.476146 33.177263,16.242303 c 0.380999,-0.380034 0.997806,-0.380034 1.378804,0 l 4.233863,4.233843 -1.377832,1.377829 -2.570525,-2.570521 v 7.054838 H 32.89273 v -7.054838 z"
       id="AWS-Amazon-VPC_Peering-connection_Resource-Icon_light-bg"
       fill="#a166ff"
       style="fill:#ffffff;fill-rule:evenodd;stroke:none;stroke-width:0.97442" />
  </g>
</svg>
