<?xml version="1.0" encoding="UTF-8" standalone="no"?>
<svg
   xmlns:dc="http://purl.org/dc/elements/1.1/"
   xmlns:cc="http://creativecommons.org/ns#"
   xmlns:rdf="http://www.w3.org/1999/02/22-rdf-syntax-ns#"
   xmlns:svg="http://www.w3.org/2000/svg"
   xmlns="http://www.w3.org/2000/svg"
   xmlns:xlink="http://www.w3.org/1999/xlink"
   xmlns:sodipodi="http://sodipodi.sourceforge.net/DTD/sodipodi-0.dtd"
   xmlns:inkscape="http://www.inkscape.org/namespaces/inkscape"
   width="256"
   height="256"
   viewBox="0 0 67.733332 67.733335"
   version="1.1"
   id="svg431"
   inkscape:version="1.0.2 (e86c8708, 2021-01-15)"
   sodipodi:docname="IAM-User.svg">
  <defs
     id="defs425">
    <linearGradient
       x1="0"
       y1="1"
       x2="1"
       y2="0"
       id="linearGradient-1">
      <stop
         stop-color="#BD0816"
         offset="0%"
         id="stop437" />
      <stop
         stop-color="#FF5252"
         offset="100%"
         id="stop439" />
    </linearGradient>
    <linearGradient
       inkscape:collect="always"
       xlink:href="#linearGradient-1"
       id="linearGradient461"
       x1="0"
       y1="80"
       x2="80"
       y2="0"
       gradientUnits="userSpaceOnUse"
       gradientTransform="matrix(0.62427035,0,0,0.62427035,-68.48057,-72.963917)" />
    <linearGradient
       inkscape:collect="always"
       xlink:href="#linearGradient-1"
       id="linearGradient463-1"
       x1="0"
       y1="80"
       x2="80"
       y2="0"
       gradientUnits="userSpaceOnUse" />
  </defs>
  <sodipodi:namedview
     id="base"
     pagecolor="#ffffff"
     bordercolor="#666666"
     borderopacity="1.0"
     inkscape:pageopacity="0.0"
     inkscape:pageshadow="2"
     inkscape:zoom="0.98994949"
     inkscape:cx="254.7483"
     inkscape:cy="215.2334"
     inkscape:document-units="mm"
     inkscape:current-layer="layer1"
     inkscape:document-rotation="0"
     showgrid="false"
     inkscape:window-width="1792"
     inkscape:window-height="1067"
     inkscape:window-x="0"
     inkscape:window-y="25"
     inkscape:window-maximized="0"
     units="px" />
  <metadata
     id="metadata428">
    <rdf:RDF>
      <cc:Work
         rdf:about="">
        <dc:format>image/svg+xml</dc:format>
        <dc:type
           rdf:resource="http://purl.org/dc/dcmitype/StillImage" />
        <dc:title></dc:title>
      </cc:Work>
    </rdf:RDF>
  </metadata>
  <g
     inkscape:label="Laag 1"
     inkscape:groupmode="layer"
     id="layer1">
    <circle
       style="fill:#ffffff;fill-rule:evenodd;stroke-width:16.3124"
       id="path4286"
       cx="33.866665"
       cy="33.866665"
       r="33.866665" />
    <path
       id="rect2991"
       style="font-variation-settings:normal;opacity:1;vector-effect:none;fill:url(#linearGradient461);fill-opacity:1;fill-rule:evenodd;stroke:none;stroke-width:0.165171;stroke-linecap:butt;stroke-linejoin:miter;stroke-miterlimit:4;stroke-dasharray:none;stroke-dashoffset:0;stroke-opacity:1;stop-color:#000000;stop-opacity:1"
       d="M 33.866771,4.6037257 A 28.959397,29.262878 0 0 0 4.9073537,33.866829 28.959397,29.262878 0 0 0 33.866771,63.129608 28.959397,29.262878 0 0 0 62.82598,33.866829 28.959397,29.262878 0 0 0 33.866771,4.6037257 Z"
       inkscape:export-xdpi="69.613052"
       inkscape:export-ydpi="69.613052" />
    <path
       d="m 19.021877,50.383815 c 0.412112,-8.188367 6.91242,-14.718422 14.844805,-14.718422 2.682365,0 5.310263,0.754836 7.602021,2.183572 4.252343,2.651807 6.976846,7.400507 7.241942,12.53485 z M 25.76665,25.507328 c 0,-4.497618 3.633784,-8.157809 8.100844,-8.157809 4.465406,0 8.098378,3.660191 8.098378,8.157809 0,4.498461 -3.632972,8.158652 -8.098378,8.158652 -4.46706,0 -8.100844,-3.660191 -8.100844,-8.158652 z m 16.575813,10.940151 c -1.431233,-0.892769 -2.983825,-1.540231 -4.595909,-1.944072 3.451247,-1.512982 5.871013,-4.973312 5.871013,-8.996079 0,-5.408522 -4.374543,-9.809535 -9.750073,-9.809535 -5.377964,0 -9.752539,4.401013 -9.752539,9.809535 0,4.027699 2.426352,7.492181 5.884216,9.001854 -7.244407,1.819373 -12.649652,8.607096 -12.649652,16.70048 0,0.455873 0.369162,0.825878 0.825847,0.825878 h 31.382602 c 0.455873,0 0.825847,-0.370005 0.825847,-0.825878 0,-6.013066 -3.081274,-11.669361 -8.041352,-14.762183 z"
       id="Fill-1"
       fill="#242f3e"
       style="fill:#ffffff;fill-rule:evenodd;stroke:none;stroke-width:0.825853" />
  </g>
</svg>
