<?xml version="1.0" encoding="UTF-8" standalone="no"?>
<svg
   xmlns:dc="http://purl.org/dc/elements/1.1/"
   xmlns:cc="http://creativecommons.org/ns#"
   xmlns:rdf="http://www.w3.org/1999/02/22-rdf-syntax-ns#"
   xmlns:svg="http://www.w3.org/2000/svg"
   xmlns="http://www.w3.org/2000/svg"
   xmlns:xlink="http://www.w3.org/1999/xlink"
   xmlns:sodipodi="http://sodipodi.sourceforge.net/DTD/sodipodi-0.dtd"
   xmlns:inkscape="http://www.inkscape.org/namespaces/inkscape"
   width="256"
   height="256"
   viewBox="0 0 67.733332 67.733335"
   version="1.1"
   id="svg431"
   inkscape:version="1.0.2 (e86c8708, 2021-01-15)"
   sodipodi:docname="IAM-Group.svg">
  <defs
     id="defs425">
    <linearGradient
       x1="0"
       y1="1"
       x2="1"
       y2="0"
       id="linearGradient-1">
      <stop
         stop-color="#BD0816"
         offset="0%"
         id="stop437" />
      <stop
         stop-color="#FF5252"
         offset="100%"
         id="stop439" />
    </linearGradient>
    <linearGradient
       inkscape:collect="always"
       xlink:href="#linearGradient-1"
       id="linearGradient461"
       x1="0"
       y1="80"
       x2="80"
       y2="0"
       gradientUnits="userSpaceOnUse"
       gradientTransform="matrix(0.62427035,0,0,0.62427035,-68.48057,-72.963917)" />
  </defs>
  <sodipodi:namedview
     id="base"
     pagecolor="#ffffff"
     bordercolor="#666666"
     borderopacity="1.0"
     inkscape:pageopacity="0.0"
     inkscape:pageshadow="2"
     inkscape:zoom="0.98994949"
     inkscape:cx="521.42857"
     inkscape:cy="419.22326"
     inkscape:document-units="mm"
     inkscape:current-layer="layer1"
     inkscape:document-rotation="0"
     showgrid="false"
     inkscape:window-width="1792"
     inkscape:window-height="1067"
     inkscape:window-x="0"
     inkscape:window-y="25"
     inkscape:window-maximized="0"
     units="px" />
  <metadata
     id="metadata428">
    <rdf:RDF>
      <cc:Work
         rdf:about="">
        <dc:format>image/svg+xml</dc:format>
        <dc:type
           rdf:resource="http://purl.org/dc/dcmitype/StillImage" />
        <dc:title></dc:title>
      </cc:Work>
    </rdf:RDF>
  </metadata>
  <g
     inkscape:label="Laag 1"
     inkscape:groupmode="layer"
     id="layer1">
    <circle
       style="fill:#ffffff;fill-rule:evenodd;stroke-width:16.3124"
       id="path4286"
       cx="33.866665"
       cy="33.866665"
       r="33.866665" />
    <path
       id="rect2991"
       style="font-variation-settings:normal;opacity:1;vector-effect:none;fill:url(#linearGradient461);fill-opacity:1;fill-rule:evenodd;stroke:none;stroke-width:0.165171;stroke-linecap:butt;stroke-linejoin:miter;stroke-miterlimit:4;stroke-dasharray:none;stroke-dashoffset:0;stroke-opacity:1;stop-color:#000000;stop-opacity:1"
       d="M 33.866771,4.6037257 A 28.959397,29.262878 0 0 0 4.9073537,33.866829 28.959397,29.262878 0 0 0 33.866771,63.129608 28.959397,29.262878 0 0 0 62.82598,33.866829 28.959397,29.262878 0 0 0 33.866771,4.6037257 Z"
       inkscape:export-xdpi="69.613052"
       inkscape:export-ydpi="69.613052" />
    <path
       d="m 37.975222,20.83516 c 0,-2.581676 2.137084,-4.681572 4.764819,-4.681572 2.626836,0 4.763045,2.099896 4.763045,4.681572 0,2.581683 -2.136209,4.681572 -4.763045,4.681572 -2.627735,0 -4.764819,-2.099889 -4.764819,-4.681572 z m 10.206271,6.242073 c -0.57303,-0.356021 -1.177929,-0.650052 -1.802312,-0.886513 1.744736,-1.160226 2.895191,-3.127258 2.895191,-5.35556 0,-3.55766 -2.931511,-6.452851 -6.534331,-6.452851 -3.603726,0 -6.536136,2.895191 -6.536136,6.452851 0,2.222977 1.145162,4.187369 2.883705,5.348468 -1.134549,0.427756 -2.200847,1.053912 -3.140548,1.859851 l 1.153995,1.344435 c 1.578242,-1.354174 3.575408,-2.099896 5.622147,-2.099896 1.595947,0 3.160899,0.447271 4.524812,1.29395 2.426663,1.507382 4.019102,4.155506 4.290098,7.056016 h -8.81491 v 1.771286 h 9.742195 c 0.489752,0 0.885646,-0.395893 0.885646,-0.885646 0,-3.846404 -1.980329,-7.466061 -5.169552,-9.446391 z M 20.262144,20.83516 c 0,-2.581676 2.137083,-4.681572 4.76482,-4.681572 2.626834,0 4.763044,2.099896 4.763044,4.681572 0,2.581683 -2.13621,4.681572 -4.763044,4.681572 -2.627737,0 -4.76482,-2.099889 -4.76482,-4.681572 z m 4.747983,14.802824 h -8.815784 c 0.428662,-4.678925 4.219269,-8.349966 8.815784,-8.349966 1.595952,0 3.160904,0.447271 4.524816,1.29395 0.382603,0.238334 0.751915,0.509268 1.098198,0.805946 l 1.154001,-1.34353 c -0.414471,-0.356021 -0.857291,-0.681085 -1.318727,-0.967151 -0.57303,-0.356021 -1.17793,-0.650052 -1.802312,-0.886513 1.744742,-1.160226 2.895222,-3.127258 2.895222,-5.35556 0,-3.55766 -2.931505,-6.452851 -6.534361,-6.452851 -3.603724,0 -6.536104,2.895191 -6.536104,6.452851 0,2.227428 1.149547,4.195334 2.894287,5.354661 -4.078412,1.54015 -7.002859,5.584916 -7.002859,10.333803 0,0.489753 0.396795,0.885646 0.885676,0.885646 h 9.742163 z m 0.04084,15.941761 c 0.42866,-4.678931 4.219267,-8.349972 8.815813,-8.349972 1.595954,0 3.160875,0.447278 4.524781,1.293957 2.426701,1.507375 4.019102,4.155499 4.290104,7.056015 z m 4.067832,-14.802823 c 0,-2.581677 2.137052,-4.681572 4.764787,-4.681572 2.626867,0 4.763045,2.099895 4.763045,4.681572 0,2.581676 -2.136178,4.681572 -4.763045,4.681572 -2.627735,0 -4.764787,-2.099896 -4.764787,-4.681572 z m 10.206239,6.242073 c -0.572999,-0.356028 -1.177898,-0.650059 -1.802281,-0.886514 1.744742,-1.160225 2.895191,-3.127264 2.895191,-5.355559 0,-3.557667 -2.931511,-6.452858 -6.534362,-6.452858 -3.603726,0 -6.536105,2.895191 -6.536105,6.452858 0,2.227427 1.149582,4.195334 2.894324,5.354654 -4.078446,1.540149 -7.00286,5.584922 -7.00286,10.333809 0,0.489753 0.396762,0.88564 0.885642,0.88564 h 19.484357 c 0.489784,0 0.885677,-0.395887 0.885677,-0.88564 0,-3.846411 -1.980329,-7.466067 -5.169583,-9.44639 z"
       id="Fill-1"
       fill="#242f3e"
       style="fill:#ffffff;fill-rule:evenodd;stroke:none;stroke-width:0.885652" />
  </g>
</svg>
