<?xml version="1.0" encoding="UTF-8" standalone="no"?>
<svg
   xmlns:dc="http://purl.org/dc/elements/1.1/"
   xmlns:cc="http://creativecommons.org/ns#"
   xmlns:rdf="http://www.w3.org/1999/02/22-rdf-syntax-ns#"
   xmlns:svg="http://www.w3.org/2000/svg"
   xmlns="http://www.w3.org/2000/svg"
   xmlns:xlink="http://www.w3.org/1999/xlink"
   xmlns:sodipodi="http://sodipodi.sourceforge.net/DTD/sodipodi-0.dtd"
   xmlns:inkscape="http://www.inkscape.org/namespaces/inkscape"
   width="210mm"
   height="297mm"
   viewBox="0 0 210 297"
   version="1.1"
   id="svg431"
   inkscape:version="1.0.2 (e86c8708, 2021-01-15)"
   sodipodi:docname="Role.svg">
  <defs
     id="defs425">
    <linearGradient
       x1="0%"
       y1="100%"
       x2="100%"
       y2="0%"
       id="linearGradient-1">
      <stop
         stop-color="#BD0816"
         offset="0%"
         id="stop437" />
      <stop
         stop-color="#FF5252"
         offset="100%"
         id="stop439" />
    </linearGradient>
    <linearGradient
       inkscape:collect="always"
       xlink:href="#linearGradient-1"
       id="linearGradient461"
       x1="0"
       y1="80"
       x2="80"
       y2="0"
       gradientUnits="userSpaceOnUse"
       gradientTransform="translate(-50.270859)" />
    <linearGradient
       inkscape:collect="always"
       xlink:href="#linearGradient-1"
       id="linearGradient463-1"
       x1="0"
       y1="80"
       x2="80"
       y2="0"
       gradientUnits="userSpaceOnUse" />
  </defs>
  <sodipodi:namedview
     id="base"
     pagecolor="#ffffff"
     bordercolor="#666666"
     borderopacity="1.0"
     inkscape:pageopacity="0.0"
     inkscape:pageshadow="2"
     inkscape:zoom="0.98994949"
     inkscape:cx="521.42857"
     inkscape:cy="590"
     inkscape:document-units="mm"
     inkscape:current-layer="layer1"
     inkscape:document-rotation="0"
     showgrid="false"
     inkscape:window-width="1792"
     inkscape:window-height="1067"
     inkscape:window-x="0"
     inkscape:window-y="25"
     inkscape:window-maximized="0" />
  <metadata
     id="metadata428">
    <rdf:RDF>
      <cc:Work
         rdf:about="">
        <dc:format>image/svg+xml</dc:format>
        <dc:type
           rdf:resource="http://purl.org/dc/dcmitype/StillImage" />
        <dc:title></dc:title>
      </cc:Work>
    </rdf:RDF>
  </metadata>
  <g
     inkscape:label="Laag 1"
     inkscape:groupmode="layer"
     id="layer1">
    <circle
       style="fill:#ffffff;fill-rule:evenodd;stroke-width:26.1304"
       id="path4286"
       cx="113.67683"
       cy="171.12872"
       r="54.25" />
    <path
       id="rect2991"
       style="font-variation-settings:normal;opacity:1;vector-effect:none;fill:url(#linearGradient461);fill-opacity:1;fill-rule:evenodd;stroke:none;stroke-width:0.264583;stroke-linecap:butt;stroke-linejoin:miter;stroke-miterlimit:4;stroke-dasharray:none;stroke-dashoffset:0;stroke-opacity:1;stop-color:#000000;stop-opacity:1"
       d="m 113.67628,124.25329 a 46.389192,46.875329 0 0 0 -46.389224,46.87569 46.389192,46.875329 0 0 0 46.389224,46.87517 46.389192,46.875329 0 0 0 46.38889,-46.87517 46.389192,46.875329 0 0 0 -46.38889,-46.87569 z"
       inkscape:export-xdpi="69.613052"
       inkscape:export-ydpi="69.613052" />
    <path
       d="m 141.97909,182.5496 c -0.22869,0.0166 -0.45848,0.0332 -0.67686,0.0559 -0.76474,0.0631 -1.56463,0.13898 -2.37333,0.22425 l -0.2464,0.0277 c -2.58579,0.26689 -5.51294,0.567 -6.9062,0.37652 -0.87021,-0.12458 -2.47294,-0.82043 -4.17239,-1.55732 -2.88026,-1.24823 -6.46666,-2.80406 -9.70876,-3.05312 -4.46255,-0.34275 -12.17301,0.49834 -17.1453,2.82898 -2.874432,-0.12901 -5.540784,-0.9025 -7.612338,-2.17997 -0.01107,-0.39867 -0.01661,-0.79702 -0.01661,-0.95084 0,-6.05934 2.839222,-11.74221 7.793958,-15.60259 3.36519,-1.96757 7.24312,-3.00628 11.22217,-3.00628 8.9675,0 16.92552,5.29904 20.02997,13.10036 h -1.19098 c -1.19253,0 -2.19171,0.84386 -2.43634,1.96314 -0.2021,-0.0764 -0.38704,-0.14507 -0.6036,-0.22868 -2.97256,-1.14713 -7.05121,-2.71619 -11.76569,-2.4364 -6.89296,0.40421 -10.28451,0.82044 -12.9553,1.58224 l 0.80433,2.81873 c 2.44365,-0.69878 5.66676,-1.08411 12.3224,-1.47675 4.07865,-0.23145 7.81887,1.1984 10.53943,2.24592 0.57869,0.22425 1.10173,0.41916 1.59835,0.59623 v 0.30012 c 0,1.3757 1.12078,2.49642 2.49642,2.49642 h 5.34301 c 1.37271,0 2.49198,-1.11635 2.49641,-2.48762 l 0.51883,-0.0443 c 0.86872,-0.0775 1.66718,-0.15559 2.33673,-0.22148 l 0.30897,-0.0332 z m -50.227191,2.44371 c -3.882362,0.53156 -6.947222,0.057 -8.215946,-0.72664 0.769163,-0.54375 2.505221,-1.30389 3.727046,-1.83717 1.057759,-0.46124 2.128696,-0.94934 3.164473,-1.47088 1.690654,1.28777 3.784189,2.25322 6.101868,2.82898 -1.340485,0.53931 -3.000352,0.96396 -4.777441,1.20571 z m 39.656961,-7.25044 h 4.47567 v -2.00123 h -4.47567 z m -15.06345,-23.88006 c 12.25939,0 22.55564,9.22238 24.07193,21.23126 -0.42193,0.0388 -0.86728,0.0836 -1.33755,0.12625 l -0.27132,0.0222 c -0.0332,-1.34486 -1.13539,-2.43191 -2.49055,-2.43191 h -1.04165 c -3.22455,-9.48905 -12.56409,-16.0304 -23.14019,-16.0304 -3.91752,0 -7.75005,0.89657 -11.19431,2.60041 0.0277,-0.0221 0.0443,-0.0443 0.0675,-0.0615 4.30867,-3.51901 9.75416,-5.45723 15.33593,-5.45723 z m 27.74919,21.67368 c -0.21262,-0.19214 -0.4629,-0.33112 -0.72957,-0.43633 -1.53246,-13.64095 -13.15457,-24.16721 -27.01962,-24.16721 -6.25425,0 -12.35905,2.17266 -17.187814,6.11654 -6.377284,5.19206 -10.034009,12.88497 -10.034009,21.10523 0,0.0604 0.0044,0.12016 0.0044,0.18051 -0.977194,0.49059 -2.010036,0.95959 -3.037008,1.40937 -3.129313,1.36834 -5.389904,2.35578 -5.726838,4.14017 -0.08472,0.45294 -0.09967,1.33905 0.761799,2.20046 1.519279,1.51928 4.434692,2.06424 7.396949,2.06424 1.233563,0 2.472995,-0.0936 3.624498,-0.25193 1.961697,-0.26634 5.62429,-0.98595 8.110463,-2.80551 3.92333,-2.84365 12.7941,-3.90728 17.41335,-3.5483 2.75284,0.21262 6.08725,1.65837 8.76827,2.82017 2.04514,0.88927 3.66254,1.58955 4.93126,1.76978 1.74487,0.23865 4.59439,-0.0554 7.61085,-0.36324 l 0.2536,-0.0277 c 0.78822,-0.0853 1.56469,-0.15836 2.33236,-0.22149 0.31506,-0.0332 0.62702,-0.0554 1.04308,-0.082 1.28927,-0.0908 2.29863,-1.17204 2.29863,-2.46125 v -5.60962 c 0,-0.70028 -0.29568,-1.36834 -0.81451,-1.83423 z"
       id="AWS-Identity-and-Access-Management_Role_Resource-Icon_light-bg"
       fill="#ff5252"
       style="fill:#ffffff;fill-rule:evenodd;stroke:none;stroke-width:1.46503" />
  </g>
</svg>
