<?xml version="1.0" encoding="UTF-8" standalone="no"?>
<svg
   xmlns:dc="http://purl.org/dc/elements/1.1/"
   xmlns:cc="http://creativecommons.org/ns#"
   xmlns:rdf="http://www.w3.org/1999/02/22-rdf-syntax-ns#"
   xmlns:svg="http://www.w3.org/2000/svg"
   xmlns="http://www.w3.org/2000/svg"
   xmlns:xlink="http://www.w3.org/1999/xlink"
   xmlns:sodipodi="http://sodipodi.sourceforge.net/DTD/sodipodi-0.dtd"
   xmlns:inkscape="http://www.inkscape.org/namespaces/inkscape"
   width="256"
   height="256"
   viewBox="0 0 67.733332 67.733335"
   version="1.1"
   id="svg431"
   inkscape:version="1.0.2 (e86c8708, 2021-01-15)"
   sodipodi:docname="IAM-MFA.svg">
  <defs
     id="defs425">
    <linearGradient
       x1="0"
       y1="1"
       x2="1"
       y2="0"
       id="linearGradient-1">
      <stop
         stop-color="#BD0816"
         offset="0%"
         id="stop437" />
      <stop
         stop-color="#FF5252"
         offset="100%"
         id="stop439" />
    </linearGradient>
    <linearGradient
       inkscape:collect="always"
       xlink:href="#linearGradient-1"
       id="linearGradient461"
       x1="0"
       y1="80"
       x2="80"
       y2="0"
       gradientUnits="userSpaceOnUse"
       gradientTransform="matrix(0.62427034,0,0,0.62427034,-68.480568,-72.963917)" />
    <linearGradient
       inkscape:collect="always"
       xlink:href="#linearGradient-1"
       id="linearGradient463-1"
       x1="0"
       y1="80"
       x2="80"
       y2="0"
       gradientUnits="userSpaceOnUse" />
  </defs>
  <sodipodi:namedview
     id="base"
     pagecolor="#ffffff"
     bordercolor="#666666"
     borderopacity="1.0"
     inkscape:pageopacity="0.0"
     inkscape:pageshadow="2"
     inkscape:zoom="0.7"
     inkscape:cx="521.42857"
     inkscape:cy="590"
     inkscape:document-units="mm"
     inkscape:current-layer="layer1"
     inkscape:document-rotation="0"
     showgrid="false"
     inkscape:window-width="1792"
     inkscape:window-height="1067"
     inkscape:window-x="0"
     inkscape:window-y="25"
     inkscape:window-maximized="0"
     units="px" />
  <metadata
     id="metadata428">
    <rdf:RDF>
      <cc:Work
         rdf:about="">
        <dc:format>image/svg+xml</dc:format>
        <dc:type
           rdf:resource="http://purl.org/dc/dcmitype/StillImage" />
        <dc:title></dc:title>
      </cc:Work>
    </rdf:RDF>
  </metadata>
  <g
     inkscape:label="Laag 1"
     inkscape:groupmode="layer"
     id="layer1">
    <circle
       style="fill:#ffffff;fill-rule:evenodd;stroke-width:16.3124"
       id="path4286"
       cx="33.866665"
       cy="33.866665"
       r="33.866665" />
    <path
       id="rect2991"
       style="font-variation-settings:normal;opacity:1;vector-effect:none;fill:url(#linearGradient461);fill-opacity:1;fill-rule:evenodd;stroke:none;stroke-width:0.165171;stroke-linecap:butt;stroke-linejoin:miter;stroke-miterlimit:4;stroke-dasharray:none;stroke-dashoffset:0;stroke-opacity:1;stop-color:#000000;stop-opacity:1"
       d="M 33.86677,4.6037257 A 28.959397,29.262877 0 0 0 4.9073537,33.866828 28.959397,29.262877 0 0 0 33.86677,63.129608 28.959397,29.262877 0 0 0 62.82598,33.866828 28.959397,29.262877 0 0 0 33.86677,4.6037257 Z"
       inkscape:export-xdpi="69.613052"
       inkscape:export-ydpi="69.613052" />
    <path
       d="m 43.008856,34.70727 1.857161,-5.428382 1.874115,5.428382 z m 3.026389,-7.294039 h -2.237729 l -4.300503,11.753514 h 2.070221 l 0.948717,-2.950065 h 4.699095 l 0.983694,2.950065 h 2.070225 z m -11.253234,5.055267 h 4.156347 v 1.661046 h -4.156347 v 5.037201 H 32.712829 V 27.413231 h 7.140353 v 1.662133 h -5.071171 z m -7.056584,-5.055267 h 2.239857 v 11.753514 h -1.899592 v -8.803487 l -3.052874,5.853422 h -1.864575 l -2.952151,-5.81845 v 8.768515 H 18.296501 V 27.413188 h 2.306641 l 3.526667,7.004656 z m 6.140723,27.654972 c -11.689938,0 -21.201557,-9.511583 -21.201557,-21.201557 0,-11.689932 9.511619,-21.201552 21.201557,-21.201552 11.691017,0 21.202629,9.51162 21.202629,21.201552 0,11.689974 -9.511612,21.201557 -21.202629,21.201557 z m 0,-44.523131 c -12.860206,0 -23.32162,10.461373 -23.32162,23.321574 0,12.860242 10.461414,23.321616 23.32162,23.321616 12.860237,0 23.322653,-10.461374 23.322653,-23.321616 0,-12.860201 -10.462416,-23.321574 -23.322653,-23.321574 z"
       id="AWS-Identity-and-Access-Management_MFA-token_Resource-Icon_light-bg"
       fill="#ff5252"
       style="fill:#ffffff;fill-rule:evenodd;stroke:none;stroke-width:1.06002" />
  </g>
</svg>
