<?xml version="1.0" encoding="UTF-8" standalone="no"?>
<svg
   xmlns:dc="http://purl.org/dc/elements/1.1/"
   xmlns:cc="http://creativecommons.org/ns#"
   xmlns:rdf="http://www.w3.org/1999/02/22-rdf-syntax-ns#"
   xmlns:svg="http://www.w3.org/2000/svg"
   xmlns="http://www.w3.org/2000/svg"
   xmlns:xlink="http://www.w3.org/1999/xlink"
   xmlns:sodipodi="http://sodipodi.sourceforge.net/DTD/sodipodi-0.dtd"
   xmlns:inkscape="http://www.inkscape.org/namespaces/inkscape"
   width="256"
   height="256"
   viewBox="0 0 67.733332 67.733335"
   version="1.1"
   id="svg431"
   inkscape:version="1.0.2 (e86c8708, 2021-01-15)"
   sodipodi:docname="IAM-Policy.svg">
  <defs
     id="defs425">
    <linearGradient
       x1="0"
       y1="1"
       x2="1"
       y2="0"
       id="linearGradient-1">
      <stop
         stop-color="#BD0816"
         offset="0%"
         id="stop437" />
      <stop
         stop-color="#FF5252"
         offset="100%"
         id="stop439" />
    </linearGradient>
    <linearGradient
       inkscape:collect="always"
       xlink:href="#linearGradient-1"
       id="linearGradient461"
       x1="0"
       y1="80"
       x2="80"
       y2="0"
       gradientUnits="userSpaceOnUse"
       gradientTransform="matrix(0.62427034,0,0,0.62427034,-68.480568,-72.963917)" />
    <linearGradient
       inkscape:collect="always"
       xlink:href="#linearGradient-1"
       id="linearGradient463-1"
       x1="0"
       y1="80"
       x2="80"
       y2="0"
       gradientUnits="userSpaceOnUse" />
  </defs>
  <sodipodi:namedview
     id="base"
     pagecolor="#ffffff"
     bordercolor="#666666"
     borderopacity="1.0"
     inkscape:pageopacity="0.0"
     inkscape:pageshadow="2"
     inkscape:zoom="0.98994949"
     inkscape:cx="521.42857"
     inkscape:cy="590"
     inkscape:document-units="mm"
     inkscape:current-layer="layer1"
     inkscape:document-rotation="0"
     showgrid="false"
     inkscape:window-width="1792"
     inkscape:window-height="1067"
     inkscape:window-x="0"
     inkscape:window-y="25"
     inkscape:window-maximized="0"
     units="px" />
  <metadata
     id="metadata428">
    <rdf:RDF>
      <cc:Work
         rdf:about="">
        <dc:format>image/svg+xml</dc:format>
        <dc:type
           rdf:resource="http://purl.org/dc/dcmitype/StillImage" />
        <dc:title></dc:title>
      </cc:Work>
    </rdf:RDF>
  </metadata>
  <g
     inkscape:label="Laag 1"
     inkscape:groupmode="layer"
     id="layer1">
    <circle
       style="fill:#ffffff;fill-rule:evenodd;stroke-width:16.3124"
       id="path4286"
       cx="33.866665"
       cy="33.866665"
       r="33.866665" />
    <path
       id="rect2991"
       style="font-variation-settings:normal;opacity:1;vector-effect:none;fill:url(#linearGradient461);fill-opacity:1;fill-rule:evenodd;stroke:none;stroke-width:0.165171;stroke-linecap:butt;stroke-linejoin:miter;stroke-miterlimit:4;stroke-dasharray:none;stroke-dashoffset:0;stroke-opacity:1;stop-color:#000000;stop-opacity:1"
       d="M 33.86677,4.6037257 A 28.959397,29.262877 0 0 0 4.9073537,33.866828 28.959397,29.262877 0 0 0 33.86677,63.129608 28.959397,29.262877 0 0 0 62.82598,33.866828 28.959397,29.262877 0 0 0 33.86677,4.6037257 Z"
       inkscape:export-xdpi="69.613052"
       inkscape:export-ydpi="69.613052" />
    <path
       d="m 37.722302,40.535585 c 0,0.573598 0.464146,1.037744 1.037744,1.037744 0.574434,0 1.038574,-0.464146 1.038574,-1.037744 0,-0.573598 -0.46414,-1.038574 -1.038574,-1.038574 -0.573598,0 -1.037744,0.464976 -1.037744,1.038574 z M 48.648565,40.27165 h -0.566801 c -0.202676,0 -0.398815,-0.07312 -0.553228,-0.205242 l -0.345361,-0.297932 -0.345326,0.297932 c -0.154257,0.132445 -0.35129,0.205242 -0.554064,0.205242 h -0.599932 c -0.202681,0 -0.399619,-0.07312 -0.553201,-0.205242 l -0.345361,-0.297932 -0.347025,0.297932 c -0.153614,0.132445 -0.350454,0.205242 -0.553228,0.205242 h -1.064045 c -0.359754,0 -0.680517,-0.226729 -0.800132,-0.565965 -0.343662,-0.976651 -1.365274,-1.658834 -2.481906,-1.658834 -1.433131,0 -2.599825,1.115769 -2.599825,2.488671 0,1.372034 1.166694,2.488668 2.599825,2.488668 1.116632,0 2.138244,-0.681355 2.481906,-1.658837 0.119615,-0.338556 0.440378,-0.565933 0.800132,-0.565933 h 6.054981 l 0.146878,-0.181512 z m 1.292283,1.909974 c -0.161311,0.198512 -0.403892,0.314926 -0.660154,0.314926 h -5.912395 c -0.729718,1.334709 -2.223103,2.224799 -3.829344,2.224799 -2.369018,0 -4.296854,-1.877742 -4.296854,-4.185703 0,-2.307958 1.927836,-4.185695 4.296854,-4.185695 1.606241,0 3.099626,0.890093 3.829344,2.224802 h 0.202039 l 0.660982,-0.5685 c 0.318135,-0.273235 0.789109,-0.273235 1.107307,0 l 0.645719,0.554932 0.644858,-0.554932 c 0.31813,-0.273235 0.789104,-0.273235 1.1073,0 l 0.660154,0.5685 h 0.585467 c 0.2139,0 0.420016,0.08145 0.576993,0.226409 l 1.198925,1.111562 c 0.01924,0.01924 0.02884,0.04489 0.04744,0.06542 -0.106151,-4.347779 -3.668093,-7.852958 -8.04047,-7.852958 -4.439404,0 -8.050671,3.610399 -8.050671,8.049803 0,4.43857 3.611267,8.050672 8.050671,8.050672 4.094908,0 7.478773,-3.076696 7.979381,-7.038392 z M 42.765004,49.9226 c -5.374457,0 -9.747671,-4.372377 -9.747671,-9.7477 0,-5.374463 4.373214,-9.746839 9.747671,-9.746839 5.375291,0 9.747668,4.372376 9.747668,9.746839 0,5.375323 -4.372377,9.7477 -9.747668,9.7477 z M 20.89295,43.716573 c 0.160348,0.168047 0.382687,0.262974 0.614326,0.262974 0.231543,0 0.453946,-0.09493 0.615192,-0.262974 l 4.943409,-5.192012 -1.229488,-1.169259 -4.329113,4.545488 -1.858245,-1.950733 -1.22862,1.170093 z m -0.516739,-8.143126 1.995695,-1.9957 1.995695,1.9957 1.19979,-1.199791 -1.995695,-1.995693 1.995695,-1.994862 -1.19979,-1.199791 -1.995695,1.994862 -1.995695,-1.994862 -1.19979,1.199791 1.994861,1.994862 -1.994861,1.995693 z m 0,-8.156728 1.995695,-1.995693 1.995695,1.995693 1.19979,-1.199786 -1.995695,-1.995699 1.995695,-1.995692 -1.19979,-1.200659 -1.995695,1.996566 -1.995695,-1.996566 -1.19979,1.200659 1.994861,1.995692 -1.994861,1.995699 z M 32.92484,44.506545 v 1.697034 H 17.047509 c -1.007179,0 -1.826848,-0.819673 -1.826848,-1.826852 V 19.638416 c 0,-1.00801 0.819669,-1.827683 1.826848,-1.827683 h 18.064777 c 1.008046,0 1.826844,0.819673 1.826844,1.827683 V 31.274029 H 35.242101 V 19.638416 c 0,-0.07311 -0.05675,-0.130523 -0.129884,-0.130523 H 17.047445 c -0.07312,0 -0.129882,0.05775 -0.129882,0.130523 v 24.738311 c 0,0.07312 0.05676,0.129886 0.129882,0.129886 z"
       id="Amazon-IOT-RESOURCES-IoT-Policy_Resource-Icon_light-bg"
       fill="#3f8624"
       style="fill:#ffffff;fill-rule:evenodd;stroke:none;stroke-width:0.848508" />
  </g>
</svg>
