<?xml version="1.0" encoding="UTF-8" standalone="no"?>
<svg
   xmlns:dc="http://purl.org/dc/elements/1.1/"
   xmlns:cc="http://creativecommons.org/ns#"
   xmlns:rdf="http://www.w3.org/1999/02/22-rdf-syntax-ns#"
   xmlns:svg="http://www.w3.org/2000/svg"
   xmlns="http://www.w3.org/2000/svg"
   xmlns:xlink="http://www.w3.org/1999/xlink"
   xmlns:sodipodi="http://sodipodi.sourceforge.net/DTD/sodipodi-0.dtd"
   xmlns:inkscape="http://www.inkscape.org/namespaces/inkscape"
   width="210mm"
   height="297mm"
   viewBox="0 0 210 297"
   version="1.1"
   id="svg431"
   inkscape:version="1.0.2 (e86c8708, 2021-01-15)"
   sodipodi:docname="InstanceRole.svg">
  <defs
     id="defs425">
    <linearGradient
       x1="0%"
       y1="100%"
       x2="100%"
       y2="0%"
       id="linearGradient-1">
      <stop
         stop-color="#BD0816"
         offset="0%"
         id="stop437" />
      <stop
         stop-color="#FF5252"
         offset="100%"
         id="stop439" />
    </linearGradient>
    <linearGradient
       inkscape:collect="always"
       xlink:href="#linearGradient-1"
       id="linearGradient461"
       x1="0"
       y1="80"
       x2="80"
       y2="0"
       gradientUnits="userSpaceOnUse"
       gradientTransform="translate(-50.270859)" />
    <linearGradient
       inkscape:collect="always"
       xlink:href="#linearGradient-1"
       id="linearGradient463-1"
       x1="0"
       y1="80"
       x2="80"
       y2="0"
       gradientUnits="userSpaceOnUse" />
  </defs>
  <sodipodi:namedview
     id="base"
     pagecolor="#ffffff"
     bordercolor="#666666"
     borderopacity="1.0"
     inkscape:pageopacity="0.0"
     inkscape:pageshadow="2"
     inkscape:zoom="1.4"
     inkscape:cx="282.36348"
     inkscape:cy="488.05388"
     inkscape:document-units="mm"
     inkscape:current-layer="layer1"
     inkscape:document-rotation="0"
     showgrid="false"
     inkscape:window-width="1792"
     inkscape:window-height="1067"
     inkscape:window-x="0"
     inkscape:window-y="25"
     inkscape:window-maximized="0" />
  <metadata
     id="metadata428">
    <rdf:RDF>
      <cc:Work
         rdf:about="">
        <dc:format>image/svg+xml</dc:format>
        <dc:type
           rdf:resource="http://purl.org/dc/dcmitype/StillImage" />
        <dc:title></dc:title>
      </cc:Work>
    </rdf:RDF>
  </metadata>
  <g
     inkscape:label="Laag 1"
     inkscape:groupmode="layer"
     id="layer1">
    <circle
       style="fill:#ffffff;fill-rule:evenodd;stroke-width:26.1304"
       id="path4286"
       cx="113.67683"
       cy="171.12872"
       r="54.25" />
    <path
       id="rect2991"
       style="font-variation-settings:normal;opacity:1;vector-effect:none;fill:url(#linearGradient461);fill-opacity:1;fill-rule:evenodd;stroke:none;stroke-width:0.264583;stroke-linecap:butt;stroke-linejoin:miter;stroke-miterlimit:4;stroke-dasharray:none;stroke-dashoffset:0;stroke-opacity:1;stop-color:#000000;stop-opacity:1"
       d="m 113.67628,124.25329 a 46.389192,46.875329 0 0 0 -46.389224,46.87569 46.389192,46.875329 0 0 0 46.389224,46.87517 46.389192,46.875329 0 0 0 46.38889,-46.87517 46.389192,46.875329 0 0 0 -46.38889,-46.87569 z"
       inkscape:export-xdpi="69.613052"
       inkscape:export-ydpi="69.613052" />
    <path
       d="m 132.48519,179.18899 c -0.14972,0.0108 -0.30017,0.0217 -0.44313,0.0366 -0.50068,0.0413 -1.02436,0.091 -1.55381,0.14681 l -0.16131,0.0181 c -1.6929,0.17472 -3.60928,0.37121 -4.52143,0.2465 -0.56972,-0.0815 -1.61901,-0.53713 -2.73163,-1.01957 -1.88567,-0.8172 -4.23366,-1.83579 -6.35623,-1.99885 -2.9216,-0.22439 -7.96957,0.32626 -11.22488,1.85211 -1.88188,-0.0844 -3.62752,-0.59086 -4.98375,-1.4272 -0.007,-0.26101 -0.0109,-0.52181 -0.0109,-0.62251 0,-3.967 1.85881,-7.68752 5.10265,-10.21488 2.20316,-1.28815 4.74201,-1.96818 7.34706,-1.96818 5.87094,0 11.08099,3.46923 13.11345,8.57668 h -0.77973 c -0.78073,0 -1.43489,0.55247 -1.59505,1.28526 -0.13231,-0.0501 -0.25339,-0.095 -0.39517,-0.14971 -1.94611,-0.75102 -4.61636,-1.77827 -7.7029,-1.5951 -4.51276,0.26463 -6.73317,0.53714 -8.48172,1.03588 l 0.52659,1.8454 c 1.59984,-0.45748 3.70999,-0.70976 8.06737,-0.96681 2.67025,-0.15154 5.11895,0.78458 6.90008,1.47038 0.37886,0.14681 0.72128,0.27442 1.04642,0.39034 v 0.19649 c 0,0.90066 0.73377,1.63438 1.63438,1.63438 h 3.49803 c 0.8987,0 1.63147,-0.73086 1.63437,-1.62862 l 0.33967,-0.0291 c 0.56874,-0.0508 1.09149,-0.10186 1.52984,-0.14499 l 0.20228,-0.0217 z m -32.883317,1.59987 c -2.541754,0.34801 -4.548291,0.0374 -5.378911,-0.47572 0.503562,-0.35599 1.640145,-0.85365 2.440067,-1.20278 0.692506,-0.30197 1.393634,-0.62153 2.07175,-0.96297 1.106854,0.84309 2.477481,1.47516 3.994851,1.85211 -0.87761,0.35308 -1.96431,0.63109 -3.127757,0.78936 z m 25.963087,-4.74679 h 2.93018 v -1.3102 h -2.93018 z m -9.86192,-15.63408 c 8.02612,0 14.76698,6.03782 15.75969,13.89993 -0.27624,0.0254 -0.56781,0.0547 -0.87568,0.0826 l -0.17763,0.0145 c -0.0217,-0.88047 -0.74334,-1.59215 -1.63055,-1.59215 h -0.68196 c -2.11109,-6.21239 -8.2256,-10.49496 -15.14967,-10.49496 -2.56478,0 -5.0739,0.58697 -7.32883,1.70246 0.0181,-0.0144 0.029,-0.029 0.0442,-0.0402 2.82086,-2.30386 6.38597,-3.5728 10.04031,-3.5728 z m 18.16716,14.18958 c -0.13921,-0.12579 -0.30306,-0.21678 -0.47764,-0.28566 -1.0033,-8.93062 -8.61219,-15.82206 -17.68952,-15.82206 -4.0946,0 -8.09136,1.42242 -11.25271,4.00444 -4.17517,3.39919 -6.569196,8.43567 -6.569196,13.81741 0,0.0395 0.0026,0.0787 0.0026,0.11818 -0.639758,0.32118 -1.315949,0.62824 -1.988298,0.9227 -2.048738,0.89584 -3.528727,1.54231 -3.749312,2.71053 -0.05545,0.29654 -0.06527,0.87667 0.498744,1.44063 0.994659,0.99466 2.903352,1.35143 4.842718,1.35143 0.807601,0 1.619045,-0.0613 2.372922,-0.16494 1.284302,-0.17436 3.682172,-0.64548 5.309862,-1.83673 2.56858,-1.86172 8.37619,-2.55806 11.40038,-2.32305 1.80226,0.13921 3.98526,1.08573 5.7405,1.84634 1.33894,0.5822 2.39783,1.04067 3.22846,1.15866 1.14235,0.15625 3.00791,-0.0363 4.98276,-0.2378 l 0.16603,-0.0181 c 0.51603,-0.0558 1.02438,-0.10367 1.52697,-0.145 0.20627,-0.0217 0.41051,-0.0363 0.6829,-0.0537 0.84407,-0.0594 1.50489,-0.76733 1.50489,-1.61136 v -3.67257 c 0,-0.45847 -0.19358,-0.89584 -0.53325,-1.20086 z"
       id="AWS-Identity-and-Access-Management_Role_Resource-Icon_light-bg"
       fill="#ff5252"
       style="fill:#ffffff;fill-rule:evenodd;stroke:none;stroke-width:0.959146" />
    <path
       id="path2414"
       style="fill:#ffffff;fill-rule:evenodd;stroke:none;stroke-width:1.56173"
       d="M 90.250165,194.55464 H 137.10205 V 147.70275 H 90.250165 Z m 57.783975,-40.60493 v -3.12348 h -7.80861 v -4.68519 c 0,-0.86361 -0.69969,-1.56171 -1.56177,-1.56171 h -4.68518 v -7.80867 h -3.12342 v 7.80867 h -6.24696 v -7.80867 h -3.12342 v 7.80867 h -6.24696 v -7.80867 h -3.12342 v 7.80867 h -6.24696 v -7.80867 h -3.12342 v 7.80867 h -6.246956 v -7.80867 h -3.12342 v 7.80867 h -4.685189 c -0.863668,0 -1.561769,0.6981 -1.561769,1.56171 v 4.68519 h -7.808608 v 3.12348 h 7.808608 v 6.2469 h -7.808608 v 3.12348 h 7.808608 v 6.2469 h -7.808608 v 3.12347 h 7.808608 v 6.2469 h -7.808608 v 3.12348 h 7.808608 v 6.2469 h -7.808608 v 3.12348 h 7.808608 v 4.68519 c 0,0.86361 0.698101,1.56171 1.561769,1.56171 h 4.685189 v 7.80867 h 3.12342 v -7.80867 h 6.246956 v 7.80867 h 3.12342 v -7.80867 h 6.24696 v 7.80867 h 3.12342 v -7.80867 h 6.24696 v 7.80867 h 3.12342 v -7.80867 h 6.24696 v 7.80867 h 3.12342 v -7.80867 h 4.68518 c 0.86208,0 1.56177,-0.6981 1.56177,-1.56171 v -4.68519 h 7.80861 v -3.12348 h -7.80861 v -6.2469 h 7.80861 v -3.12348 h -7.80861 v -6.2469 h 7.80861 v -3.12347 h -7.80861 v -6.2469 h 7.80861 v -3.12348 h -7.80861 v -6.2469 z" />
  </g>
</svg>
