<?xml version="1.0" encoding="UTF-8" standalone="no"?>
<svg
   xmlns:dc="http://purl.org/dc/elements/1.1/"
   xmlns:cc="http://creativecommons.org/ns#"
   xmlns:rdf="http://www.w3.org/1999/02/22-rdf-syntax-ns#"
   xmlns:svg="http://www.w3.org/2000/svg"
   xmlns="http://www.w3.org/2000/svg"
   xmlns:xlink="http://www.w3.org/1999/xlink"
   xmlns:sodipodi="http://sodipodi.sourceforge.net/DTD/sodipodi-0.dtd"
   xmlns:inkscape="http://www.inkscape.org/namespaces/inkscape"
   width="210mm"
   height="297mm"
   viewBox="0 0 210 297"
   version="1.1"
   id="svg431"
   inkscape:version="1.0.2 (e86c8708, 2021-01-15)"
   sodipodi:docname="User.svg">
  <defs
     id="defs425">
    <linearGradient
       x1="0%"
       y1="100%"
       x2="100%"
       y2="0%"
       id="linearGradient-1">
      <stop
         stop-color="#BD0816"
         offset="0%"
         id="stop437" />
      <stop
         stop-color="#FF5252"
         offset="100%"
         id="stop439" />
    </linearGradient>
    <linearGradient
       inkscape:collect="always"
       xlink:href="#linearGradient-1"
       id="linearGradient461"
       x1="0"
       y1="80"
       x2="80"
       y2="0"
       gradientUnits="userSpaceOnUse"
       gradientTransform="translate(-50.270859)" />
    <linearGradient
       inkscape:collect="always"
       xlink:href="#linearGradient-1"
       id="linearGradient463-1"
       x1="0"
       y1="80"
       x2="80"
       y2="0"
       gradientUnits="userSpaceOnUse" />
  </defs>
  <sodipodi:namedview
     id="base"
     pagecolor="#ffffff"
     bordercolor="#666666"
     borderopacity="1.0"
     inkscape:pageopacity="0.0"
     inkscape:pageshadow="2"
     inkscape:zoom="0.98994949"
     inkscape:cx="521.42857"
     inkscape:cy="590"
     inkscape:document-units="mm"
     inkscape:current-layer="layer1"
     inkscape:document-rotation="0"
     showgrid="false"
     inkscape:window-width="1792"
     inkscape:window-height="1067"
     inkscape:window-x="0"
     inkscape:window-y="25"
     inkscape:window-maximized="0" />
  <metadata
     id="metadata428">
    <rdf:RDF>
      <cc:Work
         rdf:about="">
        <dc:format>image/svg+xml</dc:format>
        <dc:type
           rdf:resource="http://purl.org/dc/dcmitype/StillImage" />
        <dc:title></dc:title>
      </cc:Work>
    </rdf:RDF>
  </metadata>
  <g
     inkscape:label="Laag 1"
     inkscape:groupmode="layer"
     id="layer1">
    <circle
       style="fill:#ffffff;fill-rule:evenodd;stroke-width:26.1304"
       id="path4286"
       cx="113.67683"
       cy="171.12872"
       r="54.25" />
    <path
       id="rect2991"
       style="font-variation-settings:normal;opacity:1;vector-effect:none;fill:url(#linearGradient461);fill-opacity:1;fill-rule:evenodd;stroke:none;stroke-width:0.264583;stroke-linecap:butt;stroke-linejoin:miter;stroke-miterlimit:4;stroke-dasharray:none;stroke-dashoffset:0;stroke-opacity:1;stop-color:#000000;stop-opacity:1"
       d="m 113.67628,124.25329 a 46.389192,46.875329 0 0 0 -46.389224,46.87569 46.389192,46.875329 0 0 0 46.389224,46.87517 46.389192,46.875329 0 0 0 46.38889,-46.87517 46.389192,46.875329 0 0 0 -46.38889,-46.87569 z"
       inkscape:export-xdpi="69.613052"
       inkscape:export-ydpi="69.613052" />
    <path
       d="m 89.89669,197.58704 c 0.66015,-13.1167 11.0728,-23.577 23.77945,-23.577 4.2968,0 8.50635,1.20915 12.17745,3.4978 6.8117,4.24785 11.176,11.85465 11.60065,20.0792 z m 10.80425,-39.8489 c 0,-7.2046 5.82085,-13.06775 12.9765,-13.06775 7.153,0 12.97255,5.86315 12.97255,13.06775 0,7.20595 -5.81955,13.0691 -12.97255,13.0691 -7.15565,0 -12.9765,-5.86315 -12.9765,-13.0691 z m 26.5523,17.5247 c -2.29265,-1.4301 -4.7797,-2.46725 -7.36205,-3.11415 5.52845,-2.4236 9.4046,-7.9666 9.4046,-14.41055 0,-8.66375 -7.00745,-15.7136 -15.61835,-15.7136 -8.6148,0 -15.6223,7.04985 -15.6223,15.7136 0,6.45185 3.8867,12.0015 9.42575,14.4198 -11.6046,2.9144 -20.2631,13.78745 -20.2631,26.752 0,0.73025 0.59135,1.32295 1.3229,1.32295 h 50.27085 c 0.73025,0 1.3229,-0.5927 1.3229,-1.32295 0,-9.63215 -4.9358,-18.6928 -12.8812,-23.6471 z"
       id="Fill-1"
       fill="#242f3e"
       style="fill:#ffffff;fill-rule:evenodd;stroke:none;stroke-width:1.32291" />
  </g>
</svg>
