<?xml version="1.0" encoding="UTF-8" standalone="no"?>
<svg
   xmlns:dc="http://purl.org/dc/elements/1.1/"
   xmlns:cc="http://creativecommons.org/ns#"
   xmlns:rdf="http://www.w3.org/1999/02/22-rdf-syntax-ns#"
   xmlns:svg="http://www.w3.org/2000/svg"
   xmlns="http://www.w3.org/2000/svg"
   xmlns:xlink="http://www.w3.org/1999/xlink"
   xmlns:sodipodi="http://sodipodi.sourceforge.net/DTD/sodipodi-0.dtd"
   xmlns:inkscape="http://www.inkscape.org/namespaces/inkscape"
   width="210mm"
   height="297mm"
   viewBox="0 0 210 297"
   version="1.1"
   id="svg431"
   inkscape:version="1.0.2 (e86c8708, 2021-01-15)"
   sodipodi:docname="Policy.svg">
  <defs
     id="defs425">
    <linearGradient
       x1="0%"
       y1="100%"
       x2="100%"
       y2="0%"
       id="linearGradient-1">
      <stop
         stop-color="#BD0816"
         offset="0%"
         id="stop437" />
      <stop
         stop-color="#FF5252"
         offset="100%"
         id="stop439" />
    </linearGradient>
    <linearGradient
       inkscape:collect="always"
       xlink:href="#linearGradient-1"
       id="linearGradient461"
       x1="0"
       y1="80"
       x2="80"
       y2="0"
       gradientUnits="userSpaceOnUse"
       gradientTransform="translate(-50.270859)" />
    <linearGradient
       inkscape:collect="always"
       xlink:href="#linearGradient-1"
       id="linearGradient463-1"
       x1="0"
       y1="80"
       x2="80"
       y2="0"
       gradientUnits="userSpaceOnUse" />
  </defs>
  <sodipodi:namedview
     id="base"
     pagecolor="#ffffff"
     bordercolor="#666666"
     borderopacity="1.0"
     inkscape:pageopacity="0.0"
     inkscape:pageshadow="2"
     inkscape:zoom="0.98994949"
     inkscape:cx="521.42857"
     inkscape:cy="590"
     inkscape:document-units="mm"
     inkscape:current-layer="layer1"
     inkscape:document-rotation="0"
     showgrid="false"
     inkscape:window-width="1792"
     inkscape:window-height="1067"
     inkscape:window-x="0"
     inkscape:window-y="25"
     inkscape:window-maximized="0" />
  <metadata
     id="metadata428">
    <rdf:RDF>
      <cc:Work
         rdf:about="">
        <dc:format>image/svg+xml</dc:format>
        <dc:type
           rdf:resource="http://purl.org/dc/dcmitype/StillImage" />
        <dc:title></dc:title>
      </cc:Work>
    </rdf:RDF>
  </metadata>
  <g
     inkscape:label="Laag 1"
     inkscape:groupmode="layer"
     id="layer1">
    <circle
       style="fill:#ffffff;fill-rule:evenodd;stroke-width:26.1304"
       id="path4286"
       cx="113.67683"
       cy="171.12872"
       r="54.25" />
    <path
       id="rect2991"
       style="font-variation-settings:normal;opacity:1;vector-effect:none;fill:url(#linearGradient461);fill-opacity:1;fill-rule:evenodd;stroke:none;stroke-width:0.264583;stroke-linecap:butt;stroke-linejoin:miter;stroke-miterlimit:4;stroke-dasharray:none;stroke-dashoffset:0;stroke-opacity:1;stop-color:#000000;stop-opacity:1"
       d="m 113.67628,124.25329 a 46.389192,46.875329 0 0 0 -46.389224,46.87569 46.389192,46.875329 0 0 0 46.389224,46.87517 46.389192,46.875329 0 0 0 46.38889,-46.87517 46.389192,46.875329 0 0 0 -46.38889,-46.87569 z"
       inkscape:export-xdpi="69.613052"
       inkscape:export-ydpi="69.613052" />
    <path
       d="m 119.85234,181.81146 c 0,0.91883 0.7435,1.66233 1.66233,1.66233 0.92017,0 1.66366,-0.7435 1.66366,-1.66233 0,-0.91883 -0.74349,-1.66366 -1.66366,-1.66366 -0.91883,0 -1.66233,0.74483 -1.66233,1.66366 z m 17.50245,-0.42279 h -0.90794 c -0.32466,0 -0.63885,-0.11712 -0.8862,-0.32877 l -0.55322,-0.47725 -0.55317,0.47725 c -0.2471,0.21216 -0.56272,0.32877 -0.88754,0.32877 h -0.96101 c -0.32467,0 -0.64014,-0.11712 -0.88616,-0.32877 l -0.55322,-0.47725 -0.55589,0.47725 c -0.24607,0.21216 -0.56138,0.32877 -0.8862,0.32877 h -1.70446 c -0.57628,0 -1.0901,-0.36319 -1.28171,-0.9066 -0.5505,-1.56447 -2.18699,-2.65724 -3.97569,-2.65724 -2.29569,0 -4.16458,1.78732 -4.16458,3.98653 0,2.19782 1.86889,3.98652 4.16458,3.98652 1.7887,0 3.42519,-1.09144 3.97569,-2.65724 0.19161,-0.54232 0.70543,-0.90655 1.28171,-0.90655 h 9.69929 l 0.23528,-0.29076 z m 2.07007,3.05953 c -0.2584,0.31799 -0.64698,0.50447 -1.05748,0.50447 h -9.47089 c -1.16891,2.13803 -3.56112,3.56384 -6.13411,3.56384 -3.79486,0 -6.883,-3.0079 -6.883,-6.70495 0,-3.69705 3.08814,-6.70494 6.883,-6.70494 2.57299,0 4.9652,1.42581 6.13411,3.56384 h 0.32364 l 1.05881,-0.91066 c 0.50961,-0.43769 1.26405,-0.43769 1.77376,0 l 1.03436,0.88893 1.03298,-0.88893 c 0.5096,-0.43769 1.26404,-0.43769 1.77375,0 l 1.05748,0.91066 h 0.93784 c 0.34264,0 0.67281,0.13048 0.92427,0.36268 l 1.92052,1.78058 c 0.0308,0.0308 0.0462,0.0719 0.076,0.1048 -0.17004,-6.96458 -5.87581,-12.57942 -12.87979,-12.57942 -7.11135,0 -12.89613,5.78339 -12.89613,12.89474 0,7.11001 5.78478,12.89613 12.89613,12.89613 6.55951,0 11.98002,-4.92847 12.78193,-11.27459 z m -11.49477,12.40004 c -8.60918,0 -15.6145,-7.00398 -15.6145,-15.61455 0,-8.60919 7.00532,-15.61317 15.6145,-15.61317 8.61052,0 15.6145,7.00398 15.6145,15.61317 0,8.61057 -7.00398,15.61455 -15.6145,15.61455 z m -35.036188,-9.94125 c 0.256857,0.26919 0.613015,0.42125 0.984071,0.42125 0.370902,0 0.727163,-0.15206 0.985458,-0.42125 l 7.918699,-8.31693 -1.96948,-1.873 -6.934677,7.28128 -2.976666,-3.12482 -1.96809,1.87434 z m -0.827748,-13.04423 3.196844,-3.19685 3.196844,3.19685 1.921908,-1.92191 -3.196844,-3.19684 3.196844,-3.19551 -1.921908,-1.92191 -3.196844,3.19551 -3.196844,-3.19551 -1.921907,1.92191 3.195508,3.19551 -3.195508,3.19684 z m 0,-13.06602 3.196844,-3.19684 3.196844,3.19684 1.921908,-1.9219 -3.196844,-3.19685 3.196844,-3.19684 -1.921908,-1.9233 -3.196844,3.19824 -3.196844,-3.19824 -1.921907,1.9233 3.195508,3.19684 -3.195508,3.19685 z m 20.101276,27.37568 v 2.71843 H 86.734006 c -1.613371,0 -2.926373,-1.31301 -2.926373,-2.92638 v -39.62756 c 0,-1.6147 1.313002,-2.92771 2.926373,-2.92771 h 28.937424 c 1.61476,0 2.92637,1.31301 2.92637,2.92771 v 18.63874 h -2.71842 v -18.63874 c 0,-0.11712 -0.0909,-0.20908 -0.20806,-0.20908 H 86.733903 c -0.117127,0 -0.208054,0.0925 -0.208054,0.20908 v 39.62756 c 0,0.11713 0.09093,0.20806 0.208054,0.20806 z"
       id="Amazon-IOT-RESOURCES-IoT-Policy_Resource-Icon_light-bg"
       fill="#3f8624"
       style="fill:#ffffff;fill-rule:evenodd;stroke:none;stroke-width:1.3592" />
  </g>
</svg>
