<?xml version="1.0" encoding="UTF-8" standalone="no"?>
<svg
   xmlns:dc="http://purl.org/dc/elements/1.1/"
   xmlns:cc="http://creativecommons.org/ns#"
   xmlns:rdf="http://www.w3.org/1999/02/22-rdf-syntax-ns#"
   xmlns:svg="http://www.w3.org/2000/svg"
   xmlns="http://www.w3.org/2000/svg"
   xmlns:xlink="http://www.w3.org/1999/xlink"
   xmlns:sodipodi="http://sodipodi.sourceforge.net/DTD/sodipodi-0.dtd"
   xmlns:inkscape="http://www.inkscape.org/namespaces/inkscape"
   width="210mm"
   height="297mm"
   viewBox="0 0 210 297"
   version="1.1"
   id="svg431"
   inkscape:version="1.0.2 (e86c8708, 2021-01-15)"
   sodipodi:docname="MFA.svg">
  <defs
     id="defs425">
    <linearGradient
       x1="0%"
       y1="100%"
       x2="100%"
       y2="0%"
       id="linearGradient-1">
      <stop
         stop-color="#BD0816"
         offset="0%"
         id="stop437" />
      <stop
         stop-color="#FF5252"
         offset="100%"
         id="stop439" />
    </linearGradient>
    <linearGradient
       inkscape:collect="always"
       xlink:href="#linearGradient-1"
       id="linearGradient461"
       x1="0"
       y1="80"
       x2="80"
       y2="0"
       gradientUnits="userSpaceOnUse"
       gradientTransform="translate(-50.270859)" />
    <linearGradient
       inkscape:collect="always"
       xlink:href="#linearGradient-1"
       id="linearGradient463-1"
       x1="0"
       y1="80"
       x2="80"
       y2="0"
       gradientUnits="userSpaceOnUse" />
  </defs>
  <sodipodi:namedview
     id="base"
     pagecolor="#ffffff"
     bordercolor="#666666"
     borderopacity="1.0"
     inkscape:pageopacity="0.0"
     inkscape:pageshadow="2"
     inkscape:zoom="0.98994949"
     inkscape:cx="521.42857"
     inkscape:cy="590"
     inkscape:document-units="mm"
     inkscape:current-layer="layer1"
     inkscape:document-rotation="0"
     showgrid="false"
     inkscape:window-width="1792"
     inkscape:window-height="1067"
     inkscape:window-x="0"
     inkscape:window-y="25"
     inkscape:window-maximized="0" />
  <metadata
     id="metadata428">
    <rdf:RDF>
      <cc:Work
         rdf:about="">
        <dc:format>image/svg+xml</dc:format>
        <dc:type
           rdf:resource="http://purl.org/dc/dcmitype/StillImage" />
        <dc:title></dc:title>
      </cc:Work>
    </rdf:RDF>
  </metadata>
  <g
     inkscape:label="Laag 1"
     inkscape:groupmode="layer"
     id="layer1">
    <circle
       style="fill:#ffffff;fill-rule:evenodd;stroke-width:26.1304"
       id="path4286"
       cx="113.67683"
       cy="171.12872"
       r="54.25" />
    <path
       id="rect2991"
       style="font-variation-settings:normal;opacity:1;vector-effect:none;fill:url(#linearGradient461);fill-opacity:1;fill-rule:evenodd;stroke:none;stroke-width:0.264583;stroke-linecap:butt;stroke-linejoin:miter;stroke-miterlimit:4;stroke-dasharray:none;stroke-dashoffset:0;stroke-opacity:1;stop-color:#000000;stop-opacity:1"
       d="m 113.67628,124.25329 a 46.389192,46.875329 0 0 0 -46.389224,46.87569 46.389192,46.875329 0 0 0 46.389224,46.87517 46.389192,46.875329 0 0 0 46.38889,-46.87517 46.389192,46.875329 0 0 0 -46.38889,-46.87569 z"
       inkscape:export-xdpi="69.613052"
       inkscape:export-ydpi="69.613052" />
    <path
       d="m 128.32071,172.47526 2.97493,-8.69556 3.00209,8.69556 z m 4.84788,-11.6841 h -3.58455 l -6.88885,18.8276 h 3.31623 l 1.51972,-4.72562 h 7.52734 l 1.57575,4.72562 h 3.31623 z m -18.02622,8.09788 h 6.65793 v 2.66078 h -6.65793 v 8.06894 h -3.31456 v -18.8276 h 11.43792 v 2.66252 h -8.12336 z m -11.30373,-8.09788 h 3.58796 v 18.8276 h -3.0429 v -14.10204 l -4.890306,9.37642 h -2.986807 l -4.728963,-9.3204 v 14.04602 h -3.042898 v -18.82767 h 3.694939 l 5.649263,11.22055 z m 9.83664,44.29967 c -18.725761,0 -33.962138,-15.23632 -33.962138,-33.96214 0,-18.72575 15.236377,-33.96213 33.962138,-33.96213 18.72749,0 33.96386,15.23638 33.96386,33.96213 0,18.72582 -15.23637,33.96214 -33.96386,33.96214 z m 0,-71.32027 c -20.600378,0 -37.358204,16.75776 -37.358204,37.35813 0,20.60044 16.757826,37.3582 37.358204,37.3582 20.60043,0 37.35986,-16.75776 37.35986,-37.3582 0,-20.60037 -16.75943,-37.35813 -37.35986,-37.35813 z"
       id="AWS-Identity-and-Access-Management_MFA-token_Resource-Icon_light-bg"
       fill="#ff5252"
       style="fill:#ffffff;fill-rule:evenodd;stroke:none;stroke-width:1.69802" />
  </g>
</svg>
