<?xml version="1.0" encoding="UTF-8" standalone="no"?>
<svg
   xmlns:dc="http://purl.org/dc/elements/1.1/"
   xmlns:cc="http://creativecommons.org/ns#"
   xmlns:rdf="http://www.w3.org/1999/02/22-rdf-syntax-ns#"
   xmlns:svg="http://www.w3.org/2000/svg"
   xmlns="http://www.w3.org/2000/svg"
   xmlns:xlink="http://www.w3.org/1999/xlink"
   xmlns:sodipodi="http://sodipodi.sourceforge.net/DTD/sodipodi-0.dtd"
   xmlns:inkscape="http://www.inkscape.org/namespaces/inkscape"
   width="256"
   height="256"
   viewBox="0 0 67.733332 67.733335"
   version="1.1"
   id="svg431"
   inkscape:version="1.0.2 (e86c8708, 2021-01-15)"
   sodipodi:docname="IAM-InstanceProfile.svg">
  <defs
     id="defs425">
    <linearGradient
       x1="0"
       y1="1"
       x2="1"
       y2="0"
       id="linearGradient-1">
      <stop
         stop-color="#BD0816"
         offset="0%"
         id="stop437" />
      <stop
         stop-color="#FF5252"
         offset="100%"
         id="stop439" />
    </linearGradient>
    <linearGradient
       inkscape:collect="always"
       xlink:href="#linearGradient-1"
       id="linearGradient461"
       x1="0"
       y1="80"
       x2="80"
       y2="0"
       gradientUnits="userSpaceOnUse"
       gradientTransform="matrix(0.62427035,0,0,0.62427035,-68.48057,-72.963917)" />
    <linearGradient
       inkscape:collect="always"
       xlink:href="#linearGradient-1"
       id="linearGradient463-1"
       x1="0"
       y1="80"
       x2="80"
       y2="0"
       gradientUnits="userSpaceOnUse" />
  </defs>
  <sodipodi:namedview
     id="base"
     pagecolor="#ffffff"
     bordercolor="#666666"
     borderopacity="1.0"
     inkscape:pageopacity="0.0"
     inkscape:pageshadow="2"
     inkscape:zoom="1.4"
     inkscape:cx="282.36348"
     inkscape:cy="488.05388"
     inkscape:document-units="mm"
     inkscape:current-layer="layer1"
     inkscape:document-rotation="0"
     showgrid="false"
     inkscape:window-width="1792"
     inkscape:window-height="1067"
     inkscape:window-x="0"
     inkscape:window-y="25"
     inkscape:window-maximized="0"
     units="px" />
  <metadata
     id="metadata428">
    <rdf:RDF>
      <cc:Work
         rdf:about="">
        <dc:format>image/svg+xml</dc:format>
        <dc:type
           rdf:resource="http://purl.org/dc/dcmitype/StillImage" />
        <dc:title></dc:title>
      </cc:Work>
    </rdf:RDF>
  </metadata>
  <g
     inkscape:label="Laag 1"
     inkscape:groupmode="layer"
     id="layer1">
    <circle
       style="fill:#ffffff;fill-rule:evenodd;stroke-width:16.3124"
       id="path4286"
       cx="33.866665"
       cy="33.866665"
       r="33.866665" />
    <path
       id="rect2991"
       style="font-variation-settings:normal;opacity:1;vector-effect:none;fill:url(#linearGradient461);fill-opacity:1;fill-rule:evenodd;stroke:none;stroke-width:0.165171;stroke-linecap:butt;stroke-linejoin:miter;stroke-miterlimit:4;stroke-dasharray:none;stroke-dashoffset:0;stroke-opacity:1;stop-color:#000000;stop-opacity:1"
       d="M 33.866771,4.6037257 A 28.959397,29.262878 0 0 0 4.9073537,33.866829 28.959397,29.262878 0 0 0 33.866771,63.129608 28.959397,29.262878 0 0 0 62.82598,33.866829 28.959397,29.262878 0 0 0 33.866771,4.6037257 Z"
       inkscape:export-xdpi="69.613052"
       inkscape:export-ydpi="69.613052" />
    <path
       d="m 45.866948,39.183251 c -0.09346,0.0067 -0.187387,0.01355 -0.276633,0.02285 -0.312559,0.02578 -0.639477,0.05681 -0.969997,0.09165 l -0.100701,0.0113 c -1.056827,0.109072 -2.253167,0.231735 -2.822595,0.153882 -0.355659,-0.05088 -1.0107,-0.335314 -1.705275,-0.636487 -1.177168,-0.510154 -2.642949,-1.146029 -3.968006,-1.247823 -1.823869,-0.14008 -4.975167,0.203675 -7.00736,1.156217 -1.174802,-0.05269 -2.264553,-0.368856 -3.111208,-0.890958 -0.0044,-0.162941 -0.0068,-0.325751 -0.0068,-0.388615 0,-2.47648 1.1604,-4.799091 3.185434,-6.376846 1.375367,-0.804154 2.960296,-1.228677 4.586552,-1.228677 3.665053,0 6.917533,2.165738 8.186338,5.354167 h -0.486763 c -0.487386,0 -0.895759,0.344891 -0.995742,0.80235 -0.0826,-0.03128 -0.158184,-0.05931 -0.246693,-0.09346 -1.214899,-0.468839 -2.881857,-1.110121 -4.808692,-0.995773 -2.817182,0.1652 -4.203318,0.33532 -5.294887,0.646669 l 0.328735,1.152028 c 0.998733,-0.285591 2.316037,-0.443082 5.03622,-0.60355 1.666958,-0.0946 3.195609,0.48979 4.307515,0.917914 0.236512,0.09165 0.450274,0.171312 0.653249,0.243678 v 0.122663 c 0,0.562255 0.458071,1.020295 1.020295,1.020295 h 2.183717 c 0.561032,0 1.018478,-0.456254 1.020289,-1.016699 l 0.212046,-0.01817 c 0.355047,-0.03171 0.681384,-0.06359 0.955033,-0.09051 l 0.126278,-0.01355 z m -20.52808,0.998751 c -1.586741,0.217253 -2.839363,0.02335 -3.357894,-0.296978 0.314359,-0.222234 1.023894,-0.532908 1.523261,-0.75086 0.432311,-0.18851 0.870005,-0.388002 1.293332,-0.601153 0.690977,0.526316 1.546618,0.920899 2.493867,1.156217 -0.547865,0.220418 -1.22626,0.393971 -1.952566,0.492774 z m 16.207986,-2.96328 h 1.829224 V 36.400803 H 41.546854 Z M 35.39035,27.458829 c 5.010468,0 9.218587,3.769232 9.838307,8.677315 -0.172449,0.01586 -0.354467,0.03415 -0.546661,0.05156 l -0.110889,0.0091 c -0.01355,-0.549651 -0.464045,-0.993932 -1.017904,-0.993932 h -0.425728 c -1.317891,-3.878211 -5.134998,-6.551692 -9.45749,-6.551692 -1.601116,0 -3.167485,0.366428 -4.575171,1.062795 0.0113,-0.009 0.0181,-0.0181 0.02759,-0.0251 1.760979,-1.438275 3.986572,-2.230437 6.267868,-2.230437 z m 11.341219,8.858134 c -0.0869,-0.07853 -0.189191,-0.135329 -0.298176,-0.178329 -0.626331,-5.575121 -5.376335,-9.877243 -11.043043,-9.877243 -2.556138,0 -5.051196,0.887975 -7.024734,2.499854 -2.606434,2.122013 -4.100954,5.266138 -4.100954,8.625799 0,0.02466 0.0016,0.04913 0.0016,0.07378 -0.399382,0.200503 -0.821508,0.392192 -1.241235,0.576015 -1.278967,0.559246 -2.20288,0.962818 -2.340585,1.692103 -0.03462,0.185121 -0.04075,0.547279 0.311351,0.899343 0.620937,0.620936 1.812477,0.843657 3.023166,0.843657 0.504161,0 1.010721,-0.03827 1.481345,-0.102967 0.801751,-0.108848 2.29867,-0.402954 3.314789,-1.146616 1.603488,-1.162217 5.229007,-1.596921 7.116919,-1.450211 1.125098,0.0869 2.48788,0.677789 3.583624,1.152615 0.835861,0.36345 1.496894,0.64966 2.015432,0.723317 0.713135,0.09754 1.877749,-0.02266 3.110589,-0.148451 l 0.103648,-0.0113 c 0.322142,-0.03483 0.63949,-0.06472 0.953242,-0.09052 0.128768,-0.01355 0.256269,-0.02266 0.426314,-0.03352 0.526928,-0.03708 0.939459,-0.479021 0.939459,-1.005924 v -2.292683 c 0,-0.286209 -0.120847,-0.559246 -0.332893,-0.749661 z"
       id="AWS-Identity-and-Access-Management_Role_Resource-Icon_light-bg"
       fill="#ff5252"
       style="fill:#ffffff;fill-rule:evenodd;stroke:none;stroke-width:0.598766" />
    <path
       id="path2414"
       style="fill:#ffffff;fill-rule:evenodd;stroke:none;stroke-width:0.974942"
       d="M 19.242544,48.490771 H 48.490787 V 19.242525 H 19.242544 Z M 55.315367,23.142317 v -1.949896 h -4.874684 v -2.924825 c 0,-0.539126 -0.436795,-0.974929 -0.974966,-0.974929 h -2.924819 v -4.874722 h -1.949859 v 4.874722 h -3.899792 v -4.874722 h -1.949858 v 4.874722 h -3.899792 v -4.874722 h -1.949859 v 4.874722 h -3.899792 v -4.874722 h -1.949858 v 4.874722 h -3.89979 V 12.417945 H 21.19244 v 4.874722 h -2.924825 c -0.539162,0 -0.974966,0.435803 -0.974966,0.974929 v 2.924825 h -4.874683 v 1.949896 h 4.874683 v 3.899755 h -4.874683 v 1.949896 h 4.874683 v 3.899754 h -4.874683 v 1.94989 h 4.874683 v 3.899754 h -4.874683 v 1.949896 h 4.874683 v 3.899755 h -4.874683 v 1.949896 h 4.874683 v 2.924825 c 0,0.539126 0.435804,0.974929 0.974966,0.974929 h 2.924825 v 4.874721 h 1.949858 v -4.874721 h 3.89979 v 4.874721 h 1.949858 v -4.874721 h 3.899792 v 4.874721 h 1.949859 v -4.874721 h 3.899792 v 4.874721 h 1.949858 v -4.874721 h 3.899792 v 4.874721 h 1.949859 v -4.874721 h 2.924819 c 0.538171,0 0.974966,-0.435803 0.974966,-0.974929 v -2.924825 h 4.874684 v -1.949896 h -4.874684 v -3.899755 h 4.874684 v -1.949896 h -4.874684 v -3.899754 h 4.874684 v -1.94989 h -4.874684 v -3.899754 h 4.874684 v -1.949896 h -4.874684 v -3.899755 z" />
  </g>
</svg>
