<?xml version="1.0" encoding="UTF-8" standalone="no"?>
<svg
   xmlns:dc="http://purl.org/dc/elements/1.1/"
   xmlns:cc="http://creativecommons.org/ns#"
   xmlns:rdf="http://www.w3.org/1999/02/22-rdf-syntax-ns#"
   xmlns:svg="http://www.w3.org/2000/svg"
   xmlns="http://www.w3.org/2000/svg"
   xmlns:xlink="http://www.w3.org/1999/xlink"
   xmlns:sodipodi="http://sodipodi.sourceforge.net/DTD/sodipodi-0.dtd"
   xmlns:inkscape="http://www.inkscape.org/namespaces/inkscape"
   width="256"
   height="256"
   viewBox="0 0 67.733332 67.733335"
   version="1.1"
   id="svg431"
   inkscape:version="1.0.2 (e86c8708, 2021-01-15)"
   sodipodi:docname="IAM-Role.svg">
  <defs
     id="defs425">
    <linearGradient
       x1="0"
       y1="1"
       x2="1"
       y2="0"
       id="linearGradient-1">
      <stop
         stop-color="#BD0816"
         offset="0%"
         id="stop437" />
      <stop
         stop-color="#FF5252"
         offset="100%"
         id="stop439" />
    </linearGradient>
    <linearGradient
       inkscape:collect="always"
       xlink:href="#linearGradient-1"
       id="linearGradient461"
       x1="0"
       y1="80"
       x2="80"
       y2="0"
       gradientUnits="userSpaceOnUse"
       gradientTransform="matrix(0.62427035,0,0,0.62427035,-68.480567,-72.963922)" />
    <linearGradient
       inkscape:collect="always"
       xlink:href="#linearGradient-1"
       id="linearGradient463-1"
       x1="0"
       y1="80"
       x2="80"
       y2="0"
       gradientUnits="userSpaceOnUse" />
  </defs>
  <sodipodi:namedview
     id="base"
     pagecolor="#ffffff"
     bordercolor="#666666"
     borderopacity="1.0"
     inkscape:pageopacity="0.0"
     inkscape:pageshadow="2"
     inkscape:zoom="0.98994949"
     inkscape:cx="521.42857"
     inkscape:cy="590"
     inkscape:document-units="mm"
     inkscape:current-layer="layer1"
     inkscape:document-rotation="0"
     showgrid="false"
     inkscape:window-width="1792"
     inkscape:window-height="1067"
     inkscape:window-x="0"
     inkscape:window-y="25"
     inkscape:window-maximized="0"
     units="px" />
  <metadata
     id="metadata428">
    <rdf:RDF>
      <cc:Work
         rdf:about="">
        <dc:format>image/svg+xml</dc:format>
        <dc:type
           rdf:resource="http://purl.org/dc/dcmitype/StillImage" />
        <dc:title></dc:title>
      </cc:Work>
    </rdf:RDF>
  </metadata>
  <g
     inkscape:label="Laag 1"
     inkscape:groupmode="layer"
     id="layer1">
    <circle
       style="fill:#ffffff;fill-rule:evenodd;stroke-width:16.3124"
       id="path4286"
       cx="33.866665"
       cy="33.866665"
       r="33.866665" />
    <path
       id="rect2991"
       style="font-variation-settings:normal;opacity:1;vector-effect:none;fill:url(#linearGradient461);fill-opacity:1;fill-rule:evenodd;stroke:none;stroke-width:0.165171;stroke-linecap:butt;stroke-linejoin:miter;stroke-miterlimit:4;stroke-dasharray:none;stroke-dashoffset:0;stroke-opacity:1;stop-color:#000000;stop-opacity:1"
       d="M 33.866771,4.6037267 A 28.959397,29.262878 0 0 0 4.9073542,33.866827 28.959397,29.262878 0 0 0 33.866771,63.129607 28.959397,29.262878 0 0 0 62.825979,33.866827 28.959397,29.262878 0 0 0 33.866771,4.6037267 Z"
       inkscape:export-xdpi="69.613052"
       inkscape:export-ydpi="69.613052" />
    <path
       d="m 52.19612,41.987412 c -0.14277,0.0104 -0.28622,0.0207 -0.42255,0.0349 -0.4774,0.0394 -0.97675,0.0868 -1.4816,0.13999 l -0.15382,0.0173 c -1.61423,0.16661 -3.44156,0.35396 -4.31133,0.23505 -0.54325,-0.0778 -1.54379,-0.51217 -2.6047,-0.97219 -1.79806,-0.77924 -4.036946,-1.75049 -6.060893,-1.90597 -2.785837,-0.21397 -7.599249,0.31109 -10.703302,1.76604 -1.794423,-0.0805 -3.458947,-0.5634 -4.752157,-1.36089 -0.0069,-0.24887 -0.01037,-0.49755 -0.01037,-0.59358 0,-3.78266 1.772442,-7.33031 4.865537,-9.74023 2.100788,-1.2283 4.521665,-1.87673 7.005668,-1.87673 5.598144,0 10.566097,3.30803 12.504117,8.17816 h -0.74349 c -0.74446,0 -1.36822,0.5268 -1.52094,1.22553 -0.12616,-0.0477 -0.24162,-0.0906 -0.37681,-0.14276 -1.85568,-0.71611 -4.40186,-1.69563 -7.34497,-1.52097 -4.303071,0.25234 -6.420315,0.51218 -8.08761,0.98775 l 0.50212,1.75965 c 1.525498,-0.43623 3.53759,-0.67678 7.692509,-0.92189 2.54618,-0.14449 4.881088,0.74812 6.579451,1.40206 0.36126,0.13999 0.68778,0.26167 0.99781,0.37221 v 0.18735 c 0,0.85881 0.69967,1.55844 1.55844,1.55844 h 3.33548 c 0.85694,0 1.55567,-0.6969 1.55843,-1.55294 l 0.32389,-0.0277 c 0.54232,-0.0484 1.04078,-0.0971 1.45876,-0.13826 l 0.19288,-0.0207 z m -31.355349,1.52554 c -2.423644,0.33184 -4.336945,0.0356 -5.128972,-0.45362 0.480166,-0.33945 1.563936,-0.81398 2.326685,-1.14689 0.660327,-0.28794 1.328882,-0.59265 1.975486,-0.91823 1.055426,0.80392 2.362357,1.40662 3.809216,1.76605 -0.836825,0.33668 -1.873031,0.60177 -2.982415,0.75269 z m 24.756669,-4.52623 h 2.79402 v -1.24931 h -2.79402 z m -9.403669,-14.90762 c 7.653169,0 14.080819,5.75726 15.027389,13.25405 -0.2634,0.0242 -0.54141,0.0522 -0.83499,0.0788 l -0.16938,0.0139 c -0.0207,-0.83955 -0.70879,-1.51817 -1.55477,-1.51817 h -0.65027 c -2.013,-5.92373 -7.843394,-10.0073 -14.445739,-10.0073 -2.445592,0 -4.838127,0.5597 -6.988276,1.62336 0.01729,-0.0138 0.02766,-0.0277 0.04214,-0.0384 2.689775,-2.19681 6.089233,-3.40678 9.573767,-3.40678 z m 17.322999,13.53024 c -0.13273,-0.11995 -0.28898,-0.20671 -0.45545,-0.27239 -0.95667,-8.51564 -8.21201,-15.08687 -16.867549,-15.08687 -3.904343,0 -7.715389,1.35632 -10.729843,3.81837 -3.981149,3.24125 -6.263934,8.04371 -6.263934,13.17537 0,0.0377 0.0027,0.075 0.0027,0.11269 -0.610033,0.30626 -1.254805,0.59904 -1.895914,0.87983 -1.953537,0.85421 -3.364757,1.47064 -3.575095,2.58458 -0.05289,0.28276 -0.06222,0.83593 0.475569,1.37368 0.948441,0.94845 2.768446,1.28865 4.617696,1.28865 0.770077,0 1.543817,-0.0584 2.262666,-0.15727 1.22463,-0.16627 3.511078,-0.6155 5.063122,-1.7514 2.449219,-1.77521 7.986977,-2.4392 10.870638,-2.2151 1.718517,0.13273 3.80009,1.03527 5.473764,1.76055 1.27672,0.55514 2.28642,0.99231 3.07844,1.10482 1.08927,0.14898 2.86814,-0.0346 4.75123,-0.22676 l 0.15832,-0.0173 c 0.49206,-0.0533 0.97679,-0.0989 1.45602,-0.13827 0.19668,-0.0207 0.39143,-0.0346 0.65116,-0.0512 0.80486,-0.0567 1.43497,-0.73167 1.43497,-1.53649 v -3.50192 c 0,-0.43716 -0.18459,-0.85421 -0.50848,-1.14505 z"
       id="AWS-Identity-and-Access-Management_Role_Resource-Icon_light-bg"
       fill="#ff5252"
       style="fill:#ffffff;fill-rule:evenodd;stroke:none;stroke-width:0.914575" />
  </g>
</svg>
