<?xml version="1.0" encoding="UTF-8" standalone="no"?>
<svg
   xmlns:dc="http://purl.org/dc/elements/1.1/"
   xmlns:cc="http://creativecommons.org/ns#"
   xmlns:rdf="http://www.w3.org/1999/02/22-rdf-syntax-ns#"
   xmlns:svg="http://www.w3.org/2000/svg"
   xmlns="http://www.w3.org/2000/svg"
   xmlns:xlink="http://www.w3.org/1999/xlink"
   xmlns:sodipodi="http://sodipodi.sourceforge.net/DTD/sodipodi-0.dtd"
   xmlns:inkscape="http://www.inkscape.org/namespaces/inkscape"
   width="210mm"
   height="297mm"
   viewBox="0 0 210 297"
   version="1.1"
   id="svg4507"
   inkscape:export-filename="/Users/jaccokulman/activity.png"
   inkscape:export-xdpi="59.929955"
   inkscape:export-ydpi="59.929955"
   inkscape:version="1.0.2 (e86c8708, 2021-01-15)"
   sodipodi:docname="Activity.svg">
  <defs
     id="defs4501">
    <linearGradient
       inkscape:collect="always"
       xlink:href="#linearGradient2997"
       id="linearGradient2999"
       x1="34.017857"
       y1="159.50595"
       x2="131.53572"
       y2="61.988094"
       gradientUnits="userSpaceOnUse"
       gradientTransform="translate(17.765073,2.6458719)" />
    <linearGradient
       inkscape:collect="always"
       id="linearGradient2997">
      <stop
         style="stop-color:#b0084d;stop-opacity:1"
         offset="0"
         id="stop2993" />
      <stop
         style="stop-color:#ff4f8b;stop-opacity:1"
         offset="1"
         id="stop2995" />
    </linearGradient>
  </defs>
  <sodipodi:namedview
     id="base"
     pagecolor="#ffffff"
     bordercolor="#666666"
     borderopacity="1.0"
     inkscape:pageopacity="0.0"
     inkscape:pageshadow="2"
     inkscape:zoom="0.35"
     inkscape:cx="-150"
     inkscape:cy="560"
     inkscape:document-units="mm"
     inkscape:current-layer="layer1"
     inkscape:document-rotation="0"
     showgrid="false"
     inkscape:window-width="1344"
     inkscape:window-height="943"
     inkscape:window-x="339"
     inkscape:window-y="56"
     inkscape:window-maximized="0" />
  <metadata
     id="metadata4504">
    <rdf:RDF>
      <cc:Work
         rdf:about="">
        <dc:format>image/svg+xml</dc:format>
        <dc:type
           rdf:resource="http://purl.org/dc/dcmitype/StillImage" />
        <dc:title></dc:title>
      </cc:Work>
    </rdf:RDF>
  </metadata>
  <g
     inkscape:label="Laag 1"
     inkscape:groupmode="layer"
     id="layer1">
    <circle
       style="fill:#ffffff;fill-rule:evenodd;stroke-width:26.1304"
       id="path4286"
       cx="99.785706"
       cy="120.19643"
       r="54.25"
       inkscape:export-filename="/Users/jaccokulman/StepFunction.png"
       inkscape:export-xdpi="59.929955"
       inkscape:export-ydpi="59.929955" />
    <g
       id="g5139"
       transform="translate(-0.75596243,6.8035744)">
      <path
         id="rect2991"
         style="fill:url(#linearGradient2999);fill-opacity:1;fill-rule:evenodd;stroke:#d45500;stroke-width:0.264583"
         d="M 100.54193,66.517424 A 46.389192,46.875329 0 0 0 54.152516,113.39311 46.389192,46.875329 0 0 0 100.54193,160.26828 46.389192,46.875329 0 0 0 146.93082,113.39311 46.389192,46.875329 0 0 0 100.54193,66.517424 Z"
         inkscape:export-xdpi="69.613052"
         inkscape:export-ydpi="69.613052" />
      <path
         d="m 82.202553,103.37609 h 15.65661 v -2.86192 h -15.65661 z m 0,-7.154794 h 24.196607 v -2.86193 H 82.202553 Z m 29.178297,30.050214 c -2.74562,0 -4.98169,-2.24661 -4.98169,-5.00837 0,-2.76176 2.23607,-5.00837 4.98169,-5.00837 2.74703,0 4.98165,2.24661 4.98165,5.00837 0,2.76176 -2.23462,5.00837 -4.98165,5.00837 z m 0,-12.87868 c -4.31699,0 -7.82836,3.5302 -7.82836,7.87031 0,4.34011 3.51137,7.87031 7.82836,7.87031 4.31553,0 7.8283,-3.5302 7.8283,-7.87031 0,-4.34011 -3.51277,-7.87031 -7.8283,-7.87031 z m 13.52162,9.34135 -0.97498,-0.0573 c -0.66184,-0.033 -1.318,0.43216 -1.47029,1.11615 -0.28324,1.26212 -0.77572,2.45839 -1.46603,3.55738 -0.36866,0.59242 -0.26047,1.36657 0.25619,1.83021 l 0.72875,0.65394 -2.06809,2.08063 -0.64478,-0.72693 c -0.46543,-0.52374 -1.23829,-0.63249 -1.8247,-0.25758 -1.09169,0.69259 -2.28444,1.19056 -3.54125,1.47532 -0.68035,0.15455 -1.14863,0.77989 -1.10877,1.47819 l 0.0555,0.97306 h -2.9278 l 0.0555,-0.97591 c 0.0427,-0.69689 -0.42843,-1.32079 -1.10593,-1.47676 -1.25396,-0.28476 -2.44672,-0.78274 -3.54127,-1.47675 -0.58641,-0.37349 -1.35929,-0.26616 -1.82187,0.25757 l -0.65046,0.73122 -2.0681,-2.08206 0.7259,-0.64965 c 0.51952,-0.46507 0.6277,-1.23922 0.25905,-1.83164 -0.69031,-1.09898 -1.18422,-2.29812 -1.46889,-3.56024 -0.15229,-0.68399 -0.788527,-1.14906 -1.470297,-1.11615 l -0.970711,0.0558 v -2.94063 l 0.977827,0.0572 c 0.657574,0.0273 1.313731,-0.43072 1.468871,-1.11329 0.2861,-1.26354 0.77858,-2.45983 1.46747,-3.55451 0.37291,-0.59099 0.26474,-1.36658 -0.25478,-1.83164 l -0.73444,-0.65824 2.07094,-2.08205 0.65332,0.73694 c 0.464,0.52373 1.23403,0.62963 1.82329,0.25757 1.08743,-0.68972 2.27733,-1.18484 3.53415,-1.4696 0.6775,-0.15597 1.14863,-0.77987 1.10593,-1.47961 l -0.0555,-0.98594 h 2.9278 l -0.0555,0.98737 c -0.0398,0.69831 0.42842,1.32364 1.10593,1.47818 1.2568,0.2862 2.4467,0.78274 3.53555,1.47246 0.58499,0.37205 1.35785,0.26616 1.82186,-0.25757 l 0.65616,-0.7398 2.07094,2.08205 -0.73444,0.65681 c -0.51667,0.46506 -0.62485,1.24064 -0.2562,1.8302 0.69031,1.09612 1.18278,2.29241 1.46888,3.55595 0.15229,0.684 0.80845,1.14191 1.46744,1.11472 l 0.97783,-0.0572 z m 2.39973,-5.49778 c -0.28324,-0.26902 -0.67039,-0.40352 -1.05611,-0.38922 l -1.33224,0.0787 c -0.24196,-0.76413 -0.54655,-1.50394 -0.91092,-2.21513 l 0.9949,-0.89293 c 0.29179,-0.26329 0.464,-0.63391 0.4754,-1.02742 0.0114,-0.39209 -0.14234,-0.77417 -0.41704,-1.05176 l -4.20024,-4.22279 c -0.27898,-0.28046 -0.65901,-0.435 -1.04899,-0.41926 -0.39142,0.0101 -0.75864,0.18458 -1.01911,0.47793 l -0.89243,1.00598 c -0.70597,-0.36776 -1.4404,-0.67399 -2.19904,-0.91725 l 0.074,-1.34369 c 0.0228,-0.39351 -0.11672,-0.77701 -0.38573,-1.06463 -0.26758,-0.28619 -0.64192,-0.44789 -1.03476,-0.44789 h -5.93957 c -0.39284,0 -0.76575,0.1617 -1.03477,0.44789 -0.26901,0.28762 -0.40849,0.67112 -0.38572,1.06463 l 0.074,1.34082 c -0.7558,0.24327 -1.49308,0.5495 -2.19905,0.91726 l -0.88958,-1.00312 c -0.26048,-0.29335 -0.63055,-0.46792 -1.02196,-0.47793 -0.38715,-0.0114 -0.77003,0.1388 -1.04614,0.41926 l -4.200266,4.22279 c -0.277546,0.27759 -0.428418,0.65967 -0.417035,1.05176 0.0114,0.39351 0.183611,0.76413 0.475393,1.02742 l 0.997755,0.89436 c -0.367219,0.71119 -0.671811,1.45099 -0.913779,2.2137 l -1.332234,-0.0787 c -0.385722,-0.0172 -0.775712,0.1202 -1.058957,0.38922 -0.283241,0.27046 -0.445503,0.64824 -0.445503,1.04032 v 5.97285 c 0,0.39207 0.162262,0.76986 0.445503,1.0403 0.286089,0.27046 0.653309,0.40926 1.058957,0.38923 l 1.32654,-0.0772 c 0.241968,0.76413 0.545138,1.50537 0.910931,2.21799 l -0.989213,0.88863 c -0.291782,0.26186 -0.464006,0.63392 -0.475393,1.026 -0.0114,0.39352 0.139489,0.77558 0.417035,1.05319 l 4.200266,4.22278 c 0.27611,0.28047 0.6533,0.44217 1.04614,0.41927 0.39141,-0.0101 0.76148,-0.18459 1.02196,-0.47794 l 0.88388,-0.99595 c 0.71025,0.36919 1.44611,0.67684 2.20475,0.92154 l -0.074,1.32937 c -0.0228,0.39208 0.11671,0.77701 0.38572,1.06463 0.26902,0.2862 0.64193,0.4479 1.03477,0.4479 h 5.93957 c 0.39284,0 0.76718,-0.1617 1.03762,-0.4479 0.26615,-0.28762 0.40564,-0.67255 0.38287,-1.06463 l -0.074,-1.32794 c 0.76148,-0.24326 1.49735,-0.55092 2.20901,-0.92154 l 0.88246,0.99452 c 0.25762,0.29335 0.62769,0.46793 1.01911,0.47794 0.35298,0.0258 0.77001,-0.1388 1.04899,-0.41927 l 4.20024,-4.22278 c 0.2747,-0.27761 0.42843,-0.65967 0.41704,-1.05175 -0.0114,-0.39352 -0.18361,-0.76414 -0.4754,-1.02744 l -0.9949,-0.89149 c 0.36579,-0.71119 0.67181,-1.45243 0.91378,-2.21656 l 1.32938,0.0787 c 0.38287,0.0172 0.77287,-0.1202 1.05611,-0.38923 0.28609,-0.27044 0.44693,-0.64822 0.44693,-1.0403 v -5.97285 c 0,-0.39208 -0.16084,-0.76985 -0.44693,-1.04032 z m -13.78636,-30.439437 6.52739,6.562403 h -6.52739 z m 8.53997,55.215167 H 79.355895 V 84.773579 h 31.313275 v 10.016752 c 0,0.791324 0.63766,1.430965 1.42334,1.430965 h 9.9633 v 7.154794 h 2.84666 v -8.585759 h -0.0128 c 0,-0.372051 -0.13237,-0.738377 -0.40281,-1.011692 L 113.10021,82.330923 c -0.27328,-0.273314 -0.63765,-0.404963 -1.00772,-0.404963 V 81.91165 H 77.932542 c -0.785674,0 -1.423325,0.639641 -1.423325,1.430965 V 143.4431 c 0,0.79131 0.637651,1.43095 1.423325,1.43095 h 45.546578 c 0.7871,0 1.42332,-0.63964 1.42332,-1.43095 v -5.72386 h -2.84665 z"
         id="AWS-IoT-Device-Defender-RESOURCES-IoT-Device-Jobs_Resource-Icon_light-bg"
         fill="#6cae3e"
         style="fill:#ffffff;fill-opacity:1;fill-rule:evenodd;stroke:none;stroke-width:1.42714" />
    </g>
  </g>
</svg>
